<?xml version="1.0" encoding="UTF-8" standalone="no"?>
<svg
   xmlns:dc="http://purl.org/dc/elements/1.1/"
   xmlns:cc="http://creativecommons.org/ns#"
   xmlns:rdf="http://www.w3.org/1999/02/22-rdf-syntax-ns#"
   xmlns:svg="http://www.w3.org/2000/svg"
   xmlns="http://www.w3.org/2000/svg"
   xmlns:sodipodi="http://sodipodi.sourceforge.net/DTD/sodipodi-0.dtd"
   xmlns:inkscape="http://www.inkscape.org/namespaces/inkscape"
   viewBox="0 0 293.00001 108"
   height="108"
   width="293"
   xml:space="preserve"
   version="1.1"
   id="svg2"
   inkscape:version="0.91 r13725"
   sodipodi:docname="STU-FIIT-zfv.svg"><sodipodi:namedview
     pagecolor="#ffffff"
     bordercolor="#666666"
     borderopacity="1"
     objecttolerance="10"
     gridtolerance="10"
     guidetolerance="10"
     inkscape:pageopacity="0"
     inkscape:pageshadow="2"
     inkscape:window-width="1920"
     inkscape:window-height="1016"
     id="namedview38"
     showgrid="false"
     inkscape:zoom="2.1275317"
     inkscape:cx="23.736426"
     inkscape:cy="26.807875"
     inkscape:window-x="1024"
     inkscape:window-y="27"
     inkscape:window-maximized="1"
     inkscape:current-layer="svg2" /><metadata
     id="metadata8"><rdf:RDF><cc:Work
         rdf:about=""><dc:format>image/svg+xml</dc:format><dc:type
           rdf:resource="http://purl.org/dc/dcmitype/StillImage" /><dc:title></dc:title></cc:Work></rdf:RDF></metadata><defs
     id="defs6"><clipPath
       id="clipPath16"
       clipPathUnits="userSpaceOnUse"><path
         id="path18"
         d="m 0,42.893 116.567,0 L 116.567,0 0,0 0,42.893 Z"
         inkscape:connector-curvature="0" /></clipPath></defs><g
     transform="matrix(4.7797501,0,0,-4.7797501,-54.182,155.03691)"
     id="g10"><g
       id="g12"><g
         clip-path="url(#clipPath16)"
         id="g14"><g
           transform="translate(13.0234,19.9121)"
           id="g20"><path
             id="path22"
             style="fill:#1594c8;fill-opacity:1;fill-rule:nonzero;stroke:none"
             d="m 0,0 c 0.844,0 1.533,0.686 1.533,1.533 0,0.85 -0.689,1.53 -1.533,1.53 -0.848,0 -1.535,-0.68 -1.535,-1.53 C -1.535,0.686 -0.848,0 0,0"
             inkscape:connector-curvature="0" /></g><g
           transform="translate(13.0234,11.4902)"
           id="g24"><path
             id="path26"
             style="fill:#1594c8;fill-opacity:1;fill-rule:nonzero;stroke:none"
             d="M 0,0 C 0.844,0 1.533,0.685 1.533,1.531 1.533,2.377 0.844,3.066 0,3.066 -0.848,3.066 -1.535,2.377 -1.535,1.531 -1.535,0.685 -0.848,0 0,0"
             inkscape:connector-curvature="0" /></g><g
           transform="translate(21.4453,19.9121)"
           id="g28"><path
             id="path30"
             style="fill:#1594c8;fill-opacity:1;fill-rule:nonzero;stroke:none"
             d="m 0,0 c 0.848,0 1.533,0.686 1.533,1.533 0,0.85 -0.685,1.53 -1.533,1.53 -0.848,0 -1.533,-0.68 -1.533,-1.53 C -1.533,0.686 -0.848,0 0,0"
             inkscape:connector-curvature="0" /></g><g
           transform="translate(21.4453,11.4902)"
           id="g32"><path
             id="path34"
             style="fill:#1594c8;fill-opacity:1;fill-rule:nonzero;stroke:none"
             d="M 0,0 C 0.848,0 1.533,0.685 1.533,1.531 1.533,2.377 0.848,3.066 0,3.066 -0.848,3.066 -1.533,2.377 -1.533,1.531 -1.533,0.685 -0.848,0 0,0"
             inkscape:connector-curvature="0" /></g><g
           transform="translate(29.8672,19.9121)"
           id="g36"><path
             id="path38"
             style="fill:#1594c8;fill-opacity:1;fill-rule:nonzero;stroke:none"
             d="m 0,0 c 0.848,0 1.535,0.686 1.535,1.533 0,0.85 -0.687,1.53 -1.535,1.53 -0.848,0 -1.531,-0.68 -1.531,-1.53 C -1.531,0.686 -0.848,0 0,0"
             inkscape:connector-curvature="0" /></g><g
           transform="translate(13.0234,28.3359)"
           id="g40"><path
             id="path42"
             style="fill:#1594c8;fill-opacity:1;fill-rule:nonzero;stroke:none"
             d="M 0,0 C 0.844,0 1.533,0.686 1.533,1.533 1.533,2.381 0.844,3.064 0,3.064 -0.848,3.064 -1.535,2.381 -1.535,1.533 -1.535,0.686 -0.848,0 0,0"
             inkscape:connector-curvature="0" /></g><g
           transform="translate(21.4453,28.3359)"
           id="g44"><path
             id="path46"
             style="fill:#1594c8;fill-opacity:1;fill-rule:nonzero;stroke:none"
             d="M 0,0 C 0.848,0 1.533,0.686 1.533,1.533 1.533,2.381 0.848,3.064 0,3.064 -0.848,3.064 -1.533,2.381 -1.533,1.533 -1.533,0.686 -0.848,0 0,0"
             inkscape:connector-curvature="0" /></g><g
           transform="translate(29.8672,28.3359)"
           id="g48"><path
             id="path50"
             style="fill:#1594c8;fill-opacity:1;fill-rule:nonzero;stroke:none"
             d="M 0,0 C 0.848,0 1.535,0.686 1.535,1.533 1.535,2.381 0.848,3.064 0,3.064 -0.848,3.064 -1.531,2.381 -1.531,1.533 -1.531,0.686 -0.848,0 0,0"
             inkscape:connector-curvature="0" /></g><g
           transform="translate(29.8672,11.4902)"
           id="g52"><path
             id="path54"
             style="fill:#1594c8;fill-opacity:1;fill-rule:nonzero;stroke:none"
             d="M 0,0 C 0.848,0 1.535,0.685 1.535,1.531 1.535,2.377 0.848,3.066 0,3.066 -0.848,3.066 -1.531,2.377 -1.531,1.531 -1.531,0.685 -0.848,0 0,0"
             inkscape:connector-curvature="0" /></g><g
           transform="translate(38.291,19.9121)"
           id="g56"><path
             id="path58"
             style="fill:#1594c8;fill-opacity:1;fill-rule:nonzero;stroke:none"
             d="m 0,0 c 0.846,0 1.533,0.686 1.533,1.533 0,0.85 -0.687,1.53 -1.533,1.53 -0.848,0 -1.531,-0.68 -1.531,-1.53 C -1.531,0.686 -0.848,0 0,0"
             inkscape:connector-curvature="0" /></g><g
           transform="translate(38.291,11.4902)"
           id="g60"><path
             id="path62"
             style="fill:#1594c8;fill-opacity:1;fill-rule:nonzero;stroke:none"
             d="M 0,0 C 0.846,0 1.533,0.685 1.533,1.531 1.533,2.377 0.846,3.066 0,3.066 -0.848,3.066 -1.531,2.377 -1.531,1.531 -1.531,0.685 -0.848,0 0,0"
             inkscape:connector-curvature="0" /></g><g
           transform="translate(38.291,28.3359)"
           id="g64"><path
             id="path66"
             style="fill:#1594c8;fill-opacity:1;fill-rule:nonzero;stroke:none"
             d="M 0,0 C 0.846,0 1.533,0.686 1.533,1.535 1.533,2.378 0.846,3.066 0,3.066 -0.848,3.066 -1.531,2.378 -1.531,1.535 -1.531,0.686 -0.848,0 0,0"
             inkscape:connector-curvature="0" /></g><g
           transform="translate(48.5977,18.7041)"
           id="g68"><path
             id="path70"
             style="fill:#231f20;fill-opacity:1;fill-rule:nonzero;stroke:none"
             d="m 0,0 c 0,0.058 0.035,0.091 0.092,0.091 l 3.172,0 c 0.08,0 0.125,0.045 0.125,0.125 l 0,0.713 c 0,0.08 -0.045,0.114 -0.125,0.114 l -4.284,0 c -0.08,0 -0.113,-0.034 -0.113,-0.114 l 0,-7.955 c 0,-0.08 0.033,-0.114 0.113,-0.114 l 0.918,0 C -0.033,-7.14 0,-7.106 0,-7.026 l 0,3.502 2.539,0 c 0.08,0 0.125,0.033 0.125,0.113 l 0,0.724 c 0,0.081 -0.045,0.114 -0.125,0.114 L 0,-2.573 0,0 Z m 7.197,1.043 c -0.08,0 -0.113,-0.034 -0.113,-0.114 l 0,-7.955 c 0,-0.08 0.033,-0.114 0.113,-0.114 l 0.918,0 c 0.069,0 0.102,0.034 0.102,0.114 l 0,7.955 c 0,0.08 -0.033,0.114 -0.102,0.114 l -0.918,0 z m 5.553,0 c -0.08,0 -0.113,-0.034 -0.113,-0.114 l 0,-7.955 c 0,-0.08 0.033,-0.114 0.113,-0.114 l 0.918,0 c 0.068,0 0.102,0.034 0.102,0.114 l 0,7.955 c 0,0.08 -0.034,0.114 -0.102,0.114 l -0.918,0 z m 8,-8.183 c 0.08,0 0.115,0.034 0.115,0.114 l 0,7.026 c 0,0.058 0.022,0.091 0.078,0.091 l 1.973,0 c 0.078,0 0.113,0.045 0.113,0.125 l 0,0.713 c 0,0.08 -0.035,0.114 -0.113,0.114 l -5.236,0 c -0.08,0 -0.114,-0.034 -0.114,-0.114 l 0,-0.713 c 0,-0.08 0.034,-0.125 0.114,-0.125 l 1.961,0 C 19.697,0.091 19.73,0.058 19.73,0 l 0,-7.026 c 0,-0.08 0.036,-0.114 0.102,-0.114 l 0.918,0 z"
             inkscape:connector-curvature="0" /></g><g
           transform="translate(47.2031,23.4941)"
           id="g72"><path
             id="path74"
             style="fill:#231f20;fill-opacity:1;fill-rule:nonzero;stroke:none"
             d="m 0,0 c 0.771,-0.396 1.508,-0.477 2.449,-0.477 1.744,0 2.867,0.873 2.867,2.46 0,1.156 -0.545,1.859 -1.961,2.46 -1.212,0.487 -1.382,0.703 -1.382,1.156 0,0.464 0.318,0.782 1.043,0.782 0.533,0 0.986,-0.091 1.427,-0.272 0.102,-0.046 0.17,0 0.203,0.079 L 5.18,7.23 C 5.215,7.311 5.215,7.389 5.111,7.424 4.285,7.786 3.809,7.865 2.709,7.865 1.021,7.865 0.023,6.879 0.023,5.553 c 0,-1.212 0.612,-1.96 2.03,-2.561 1.099,-0.487 1.326,-0.724 1.326,-1.189 0,-0.5 -0.408,-0.794 -1.088,-0.794 -0.783,0 -1.18,0.159 -1.656,0.374 -0.09,0.033 -0.158,0 -0.192,-0.08 L -0.066,0.137 C -0.09,0.091 -0.066,0.045 0,0 m 12.547,-0.396 c 0.101,0 0.146,0.044 0.146,0.146 l 0,6.494 c 0,0.057 0.024,0.092 0.08,0.092 l 1.926,0 c 0.092,0 0.137,0.045 0.137,0.146 l 0,1.157 c 0,0.101 -0.045,0.147 -0.137,0.147 l -5.779,0 C 8.818,7.786 8.773,7.74 8.773,7.639 l 0,-1.157 c 0,-0.101 0.045,-0.146 0.147,-0.146 l 1.893,0 c 0.056,0 0.091,-0.035 0.091,-0.092 l 0,-6.494 c 0,-0.102 0.045,-0.146 0.123,-0.146 l 1.52,0 z m 12.33,8.035 c 0,0.101 -0.045,0.147 -0.125,0.147 l -1.529,0 c -0.09,0 -0.137,-0.046 -0.137,-0.147 l 0,-5.463 c 0,-0.805 -0.441,-1.201 -1.336,-1.201 -0.885,0 -1.326,0.396 -1.326,1.201 l 0,5.463 c 0,0.101 -0.045,0.147 -0.125,0.147 l -1.52,0 c -0.101,0 -0.146,-0.046 -0.146,-0.147 l 0,-5.508 c 0,-1.598 0.894,-2.608 3.117,-2.608 2.232,0 3.127,1.01 3.127,2.608 l 0,5.508 z"
             inkscape:connector-curvature="0" /></g></g></g></g></svg>