<?xml version="1.0" encoding="UTF-8" standalone="no"?>
<svg
   xmlns:dc="http://purl.org/dc/elements/1.1/"
   xmlns:cc="http://creativecommons.org/ns#"
   xmlns:rdf="http://www.w3.org/1999/02/22-rdf-syntax-ns#"
   xmlns:svg="http://www.w3.org/2000/svg"
   xmlns="http://www.w3.org/2000/svg"
   xmlns:sodipodi="http://sodipodi.sourceforge.net/DTD/sodipodi-0.dtd"
   xmlns:inkscape="http://www.inkscape.org/namespaces/inkscape"
   width="390"
   height="194"
   viewBox="0 0 390 194"
   version="1.1"
   id="svg16"
   sodipodi:docname="kiwi.svg"
   inkscape:version="0.92.4 (unknown)">
  <metadata
     id="metadata20">
    <rdf:RDF>
      <cc:Work
         rdf:about="">
        <dc:format>image/svg+xml</dc:format>
        <dc:type
           rdf:resource="http://purl.org/dc/dcmitype/StillImage" />
        <dc:title>logo@1x</dc:title>
      </cc:Work>
    </rdf:RDF>
  </metadata>
  <sodipodi:namedview
     pagecolor="#ffffff"
     bordercolor="#666666"
     borderopacity="1"
     objecttolerance="10"
     gridtolerance="10"
     guidetolerance="10"
     inkscape:pageopacity="0"
     inkscape:pageshadow="2"
     inkscape:window-width="1920"
     inkscape:window-height="1016"
     id="namedview18"
     showgrid="false"
     inkscape:zoom="1.1870504"
     inkscape:cx="140.68485"
     inkscape:cy="69"
     inkscape:window-x="0"
     inkscape:window-y="27"
     inkscape:window-maximized="1"
     inkscape:current-layer="svg16" />
  <!-- Generator: Sketch 3.7.2 (28276) - http://www.bohemiancoding.com/sketch -->
  <title
     id="title2">logo@1x</title>
  <desc
     id="desc4">Created with Sketch.</desc>
  <defs
     id="defs6" />
  <g
     id="UI-Kit"
     style="fill:none;fill-rule:evenodd;stroke:none;stroke-width:1"
     transform="matrix(1.4070412,0,0,1.4070412,1.9587448e-5,0.12017418)">
    <g
       id="UI-Header"
       transform="translate(-516,-3804)">
      <g
         id="Desktop"
         transform="translate(-1,228)">
        <g
           id="Normal"
           transform="translate(0,66)">
          <g
             id="logo"
             transform="translate(517,3510)">
            <path
               d="m 120.44677,57.026734 c 0.14115,-0.353861 0.2823,-0.918574 0.2823,-1.271621 0,-1.907198 -1.48317,-2.825888 -3.03686,-2.825888 -1.34213,0 -2.18996,0.636275 -2.68532,2.119561 l -6.21579,19.002747 -7.13518,-19.144244 c -0.42345,-1.200872 -1.2004,-1.978064 -2.684504,-1.978064 -1.483171,0 -2.260246,0.777192 -2.68381,1.978064 L 89.223293,74.051533 83.006804,55.048786 c -0.494661,-1.483286 -1.342486,-2.119561 -2.684623,-2.119561 -1.554384,0 -3.03767,0.91869 -3.03767,2.825888 0,0.353047 0.141265,0.91776 0.282299,1.271621 l 8.688865,25.784296 c 0.282995,1.129426 1.20122,1.907896 2.75572,1.907896 1.554035,0 2.401743,-0.847708 2.825307,-1.978645 l 7.134714,-19.568156 7.205574,19.568156 c 0.42415,1.200175 1.34202,1.978645 2.82647,1.978645 1.48317,0 2.331,-0.706211 2.75456,-1.907896 z M 55.669517,78.822724 45.389094,68.605381 55.669517,58.387574 c 1.298921,-1.298921 1.399643,-3.297547 0,-4.695911 -1.398132,-1.398597 -3.396293,-1.299037 -4.694865,6.97e-4 L 38.466743,66.19992 c -0.669036,0.669384 -0.992691,1.535564 -0.978286,2.404648 -0.0144,0.868619 0.308553,1.735728 0.978286,2.405113 l 12.507909,12.50756 c 1.298572,1.299037 3.296733,1.399294 4.694865,0 1.398829,-1.397667 1.298921,-3.39548 0,-4.694517 z M 35.912581,81.159643 V 56.010111 c 0,-1.83645 -1.412072,-3.31962 -3.319968,-3.31962 -1.907547,0 -3.319968,1.48317 -3.319968,3.31962 v 25.149532 c 0,1.835753 1.341324,3.319039 3.319968,3.319039 1.977947,0 3.319968,-1.483286 3.319968,-3.319039 z M 64.018463,56.249774 v 25.147325 c 0,1.837146 1.342485,3.321827 3.320433,3.321827 1.978179,0 3.320781,-1.484681 3.320781,-3.321827 V 56.249774 c 0,-1.836449 -1.413351,-3.320549 -3.320781,-3.320549 -1.907199,0 -3.320433,1.4841 -3.320433,3.320549 z m 63.449177,0 v 25.147325 c 0,1.837146 1.34283,3.321827 3.32078,3.321827 1.97783,0 3.31996,-1.484681 3.31996,-3.321827 V 56.249774 c 0,-1.836449 -1.41323,-3.320549 -3.31996,-3.320549 -1.90755,0 -3.32078,1.4841 -3.32078,3.320549 z m 0,0 v 25.147325 c 0,1.837146 1.34283,3.321827 3.32078,3.321827 1.97783,0 3.31996,-1.484681 3.31996,-3.321827 V 56.249774 c 0,-1.836449 -1.41323,-3.320549 -3.31996,-3.320549 -1.90755,0 -3.32078,1.4841 -3.32078,3.320549 z m 0,0 v 25.147325 c 0,1.837146 1.34283,3.321827 3.32078,3.321827 1.97783,0 3.31996,-1.484681 3.31996,-3.321827 V 56.249774 c 0,-1.836449 -1.41323,-3.320549 -3.31996,-3.320549 -1.90755,0 -3.32078,1.4841 -3.32078,3.320549 z m 67.20055,2.460201 c 2.97447,0 4.70974,1.135583 6.37077,2.402441 0.66346,0.457137 1.3117,0.679259 1.98178,0.679259 1.6127,0 2.82879,-1.235375 2.82879,-2.873635 0,-0.764413 -0.30983,-1.44646 -0.94668,-2.084245 -2.37027,-2.452627 -6.19628,-3.916977 -10.23466,-3.916977 -9.16075,0 -15.5587,6.489958 -15.5587,15.782105 0,9.29296 6.39795,15.782919 15.5587,15.782919 4.03873,0 7.8587,-1.458774 10.21793,-3.901294 0.64824,-0.648705 0.96341,-1.335051 0.96341,-2.098883 0,-1.63884 -1.21609,-2.874796 -2.82879,-2.874796 -0.67182,0 -1.33482,0.233041 -2.0293,0.71411 -1.56937,1.1982 -3.35029,2.36817 -6.32325,2.36817 -5.48762,0 -9.32026,-4.10808 -9.32026,-9.990226 0,-5.881448 3.83264,-9.988948 9.32026,-9.988948 z m 30.91406,-5.793134 c -8.92087,0 -15.64793,6.784919 -15.64793,15.782105 0,8.997651 6.72706,15.782919 15.64793,15.782919 8.92039,0 15.64723,-6.785268 15.64723,-15.782919 0,-8.997186 -6.72684,-15.782105 -15.64723,-15.782105 z m 0,25.928583 c -6.18989,0 -9.42854,-5.104373 -9.42854,-10.146478 0,-6.660382 4.74308,-10.145083 9.42854,-10.145083 6.19186,0 9.43167,5.103676 9.43167,10.145083 0,6.661313 -4.74471,10.146478 -9.43167,10.146478 z m 49.42659,-25.749829 c -1.14975,0 -2.16033,0.680421 -2.70332,1.819953 l -9.67052,20.24939 -0.0847,-0.178208 -9.69317,-20.111609 c -0.66904,-1.214116 -1.53557,-1.779526 -2.72726,-1.779526 -1.63629,0 -2.91801,1.282192 -2.91801,2.918826 v 25.325068 c 0,1.606429 1.33632,2.963785 2.91801,2.963785 1.60631,0 2.96343,-1.357356 2.96343,-2.963785 V 67.883267 l 6.97998,14.791737 c 0.55751,1.110722 1.37222,1.62827 2.5638,1.62827 1.135,0 2.07123,-0.598868 2.56892,-1.643023 l 6.88401,-14.77408 V 81.38468 c 0,1.609101 1.30938,2.918594 2.91882,2.918594 1.66127,0 2.96263,-1.28196 2.96263,-2.918594 V 56.059147 c 0,-1.772555 -1.19065,-2.963552 -2.96263,-2.963552 z"
               id="Combined-Shape"
               inkscape:connector-curvature="0"
               style="fill:#30363d" />
            <path
               d="m 149.93431,97.876109 c -0.86258,-0.636275 -1.88362,-0.973058 -2.95252,-0.973058 -1.5761,0 -3.07565,0.756397 -4.01049,2.023603 -6.24298,8.461056 -15.05928,15.553716 -25.49526,20.511476 -10.85141,5.15897 -23.254184,7.88518 -35.903707,7.88518 -19.301657,0 -37.403372,-6.20731 -50.970771,-17.47996 C 24.088717,104.43879 18.9869,98.165146 15.43726,91.197139 11.804208,84.062309 9.9609038,76.493344 9.9589289,68.700631 9.9609038,60.90908 11.804208,53.339417 15.43726,46.20238 20.779437,35.710523 29.686473,26.753765 41.195766,20.300169 53.123047,13.610046 67.092401,10.073997 81.598472,10.073997 c 12.647664,0 25.080758,2.74027 35.955288,7.92422 10.45782,4.983554 19.27889,12.106534 25.50943,20.599184 0.93472,1.273596 2.43683,2.033594 4.01851,2.033594 1.06414,0 2.08181,-0.333878 2.94218,-0.965274 2.21308,-1.624552 2.69194,-4.747027 1.06716,-6.960107 C 143.88511,22.891157 133.77023,14.696604 121.83923,9.0080016 109.63465,3.1914934 95.719431,0.1165323 81.598472,0.1157191 59.978715,0.12013364 39.608506,7.143903 24.240206,19.893218 16.680534,26.168838 10.733449,33.499302 6.5637972,41.681889 2.2065277,50.227397 -0.00225374,59.317405 -4.6468866e-5,68.700631 -0.00225374,78.083508 2.2065277,87.173284 6.5637972,95.71763 c 6.2485528,12.25384 16.5396638,22.65079 29.7612188,30.0664 13.411612,7.52099 29.066741,11.49756 45.273456,11.49896 14.082622,0 27.967288,-3.06021 40.152588,-8.84953 11.90857,-5.66247 22.01718,-13.82043 29.23298,-23.59295 1.63001,-2.20854 1.15928,-5.332879 -1.04973,-6.964401"
               id="Fill-5"
               inkscape:connector-curvature="0"
               style="fill:#0097a9" />
            <path
               d="m 157.89801,63.215283 c -3.02327,0 -5.48298,2.460062 -5.48298,5.48414 0,3.023845 2.45971,5.484023 5.48298,5.484023 3.02326,0 5.48297,-2.460178 5.48297,-5.484023 0,-3.024078 -2.45971,-5.48414 -5.48297,-5.48414"
               id="Fill-3"
               inkscape:connector-curvature="0"
               style="fill:#0097a9" />
          </g>
        </g>
      </g>
    </g>
  </g>
</svg>
