<?xml version="1.0" encoding="UTF-8" standalone="no"?>
<!--Generator: Xara Xtreme (www.xara.com), SVG filter version: 1.0.0.13-->

<svg
   xmlns:dc="http://purl.org/dc/elements/1.1/"
   xmlns:cc="http://creativecommons.org/ns#"
   xmlns:rdf="http://www.w3.org/1999/02/22-rdf-syntax-ns#"
   xmlns:svg="http://www.w3.org/2000/svg"
   xmlns="http://www.w3.org/2000/svg"
   xmlns:sodipodi="http://sodipodi.sourceforge.net/DTD/sodipodi-0.dtd"
   xmlns:inkscape="http://www.inkscape.org/namespaces/inkscape"
   version="1.1"
   overflow="visible"
   width="350pt"
   height="130pt"
   viewBox="0 0 350 129.99999"
   id="svg171"
   sodipodi:docname="psf.svg"
   style="overflow:visible;fill-rule:evenodd;stroke-width:0.50099999;stroke-linejoin:bevel"
   inkscape:version="0.92.4 (unknown)">
  <metadata
     id="metadata175">
    <rdf:RDF>
      <cc:Work
         rdf:about="">
        <dc:format>image/svg+xml</dc:format>
        <dc:type
           rdf:resource="http://purl.org/dc/dcmitype/StillImage" />
        <dc:title></dc:title>
      </cc:Work>
    </rdf:RDF>
  </metadata>
  <sodipodi:namedview
     pagecolor="#ffffff"
     bordercolor="#666666"
     borderopacity="1"
     objecttolerance="10"
     gridtolerance="10"
     guidetolerance="10"
     inkscape:pageopacity="0"
     inkscape:pageshadow="2"
     inkscape:window-width="1920"
     inkscape:window-height="1016"
     id="namedview173"
     showgrid="false"
     inkscape:zoom="0.68125852"
     inkscape:cx="563.5521"
     inkscape:cy="246.72089"
     inkscape:window-x="0"
     inkscape:window-y="27"
     inkscape:window-maximized="1"
     inkscape:current-layer="svg171" />
  <defs
     id="defs99">
    <marker
       id="DefaultArrow2"
       markerUnits="strokeWidth"
       viewBox="0 0 1 1"
       markerWidth="1"
       markerHeight="1"
       overflow="visible"
       orient="auto"
       style="overflow:visible">
      <!-- REF_ARROW_STRAIGHT (-2) -->
      <g
         transform="scale(0.00925926)"
         id="g4">
        <!-- 1/108 -->
        <path
           d="M -9,54 V -54 L 117,0 Z"
           id="path2"
           inkscape:connector-curvature="0" />
      </g>
    </marker>
    <marker
       id="DefaultArrow3"
       markerUnits="strokeWidth"
       viewBox="0 0 1 1"
       markerWidth="1"
       markerHeight="1"
       overflow="visible"
       orient="auto"
       style="overflow:visible">
      <!-- REF_ARROW_ANGLED -->
      <g
         transform="scale(0.00925926)"
         id="g9">
        <path
           d="M -27,54 -9,0 -27,-54 135,0 Z"
           id="path7"
           inkscape:connector-curvature="0" />
      </g>
    </marker>
    <marker
       id="DefaultArrow4"
       markerUnits="strokeWidth"
       viewBox="0 0 1 1"
       markerWidth="1"
       markerHeight="1"
       overflow="visible"
       orient="auto"
       style="overflow:visible">
      <!-- REF_ARROW_ROUNDED -->
      <g
         transform="scale(0.00925926)"
         id="g14">
        <path
           d="m -9,0 v -45 c 0,-6.708 11.808,-11.58 18,-9 l 108,45 c 3.916,1.631 9,4.758 9,9 0,4.242 -5.084,7.369 -9,9 L 9,54 C 2.808,56.58 -9,51.708 -9,45 Z"
           id="path12"
           inkscape:connector-curvature="0" />
      </g>
    </marker>
    <marker
       id="DefaultArrow5"
       markerUnits="strokeWidth"
       viewBox="0 0 1 1"
       markerWidth="1"
       markerHeight="1"
       overflow="visible"
       orient="auto"
       style="overflow:visible">
      <!-- REF_ARROW_SPOT -->
      <g
         transform="scale(0.00925926)"
         id="g19">
        <path
           d="M -54,0 C -54,29.807 -29.807,54 0,54 29.807,54 54,29.807 54,0 54,-29.807 29.807,-54 0,-54 -29.807,-54 -54,-29.807 -54,0 Z"
           id="path17"
           inkscape:connector-curvature="0" />
      </g>
    </marker>
    <marker
       id="DefaultArrow6"
       markerUnits="strokeWidth"
       viewBox="0 0 1 1"
       markerWidth="1"
       markerHeight="1"
       overflow="visible"
       orient="auto"
       style="overflow:visible">
      <!-- REF_ARROW_DIAMOND -->
      <g
         transform="scale(0.00925926)"
         id="g24">
        <path
           d="M -63,0 0,63 63,0 0,-63 Z"
           id="path22"
           inkscape:connector-curvature="0" />
      </g>
    </marker>
    <marker
       id="DefaultArrow7"
       markerUnits="strokeWidth"
       viewBox="0 0 1 1"
       markerWidth="1"
       markerHeight="1"
       overflow="visible"
       orient="auto"
       style="overflow:visible">
      <!-- REF_ARROW_FEATHER -->
      <g
         transform="scale(0.00925926)"
         id="g29">
        <path
           d="m 18,-54 h 90 L 63,0 108,54 H 18 L -36,0 Z"
           id="path27"
           inkscape:connector-curvature="0" />
      </g>
    </marker>
    <marker
       id="DefaultArrow8"
       markerUnits="strokeWidth"
       viewBox="0 0 1 1"
       markerWidth="1"
       markerHeight="1"
       overflow="visible"
       orient="auto"
       style="overflow:visible">
      <!-- REF_ARROW_FEATHER2 -->
      <g
         transform="scale(0.00925926)"
         id="g34">
        <path
           d="m -36,0 54,-54 h 36 l -36,36 h 9 l 36,-36 h 36 l -36,36 h 9 l 36,-36 h 36 L 90,0 144,54 H 108 L 72,18 H 63 L 99,54 H 63 L 27,18 H 18 L 54,54 H 18 Z"
           id="path32"
           inkscape:connector-curvature="0" />
      </g>
    </marker>
    <marker
       id="DefaultArrow9"
       markerUnits="strokeWidth"
       viewBox="0 0 1 1"
       markerWidth="1"
       markerHeight="1"
       overflow="visible"
       orient="auto"
       style="overflow:visible">
      <!-- REF_ARROW_HOLLOWDIAMOND -->
      <g
         transform="scale(0.00925926)"
         id="g39">
        <path
           d="M 0,45 -45,0 0,-45 45,0 Z M 0,63 -63,0 0,-63 63,0 Z"
           id="path37"
           inkscape:connector-curvature="0" />
      </g>
    </marker>
    <filter
       id="StainedFilter">
      <feBlend
         mode="multiply"
         in2="BackgroundImage"
         in="SourceGraphic"
         result="blend"
         id="feBlend42" />
      <feComposite
         in="blend"
         in2="SourceAlpha"
         operator="in"
         result="comp"
         id="feComposite44" />
    </filter>
    <filter
       id="BleachFilter">
      <feBlend
         mode="screen"
         in2="BackgroundImage"
         in="SourceGraphic"
         result="blend"
         id="feBlend47" />
      <feComposite
         in="blend"
         in2="SourceAlpha"
         operator="in"
         result="comp"
         id="feComposite49" />
    </filter>
    <filter
       id="InvertTransparencyBitmapFilter">
      <feComponentTransfer
         id="feComponentTransfer58">
        <feFuncR
           type="gamma"
           amplitude="1.055"
           exponent=".416666666"
           offset="-0.055"
           id="feFuncR52" />
        <feFuncG
           type="gamma"
           amplitude="1.055"
           exponent=".416666666"
           offset="-0.055"
           id="feFuncG54" />
        <feFuncB
           type="gamma"
           amplitude="1.055"
           exponent=".416666666"
           offset="-0.055"
           id="feFuncB56" />
      </feComponentTransfer>
      <feComponentTransfer
         id="feComponentTransfer68">
        <feFuncR
           type="linear"
           slope="-1"
           intercept="1"
           id="feFuncR60" />
        <feFuncG
           type="linear"
           slope="-1"
           intercept="1"
           id="feFuncG62" />
        <feFuncB
           type="linear"
           slope="-1"
           intercept="1"
           id="feFuncB64" />
        <feFuncA
           type="linear"
           slope="1"
           intercept="0"
           id="feFuncA66" />
      </feComponentTransfer>
      <feComponentTransfer
         id="feComponentTransfer76">
        <feFuncR
           type="gamma"
           amplitude="1"
           exponent="2.4"
           offset="0"
           id="feFuncR70" />
        <feFuncG
           type="gamma"
           amplitude="1"
           exponent="2.4"
           offset="0"
           id="feFuncG72" />
        <feFuncB
           type="gamma"
           amplitude="1"
           exponent="2.4"
           offset="0"
           id="feFuncB74" />
      </feComponentTransfer>
    </filter>
    <radialGradient
       id="RadialGradient"
       gradientUnits="userSpaceOnUse"
       cx="0"
       cy="0"
       r="297.93301"
       gradientTransform="matrix(1,0,0,0.266738,726.702,267.013)">
      <stop
         offset="0"
         stop-color="#727272"
         id="stop79" />
      <stop
         offset="1"
         stop-color="#000000"
         id="stop81" />
    </radialGradient>
    <linearGradient
       id="LinearGradient"
       gradientUnits="userSpaceOnUse"
       x1="0"
       y1="0"
       x2="673.55902"
       y2="0"
       gradientTransform="rotate(-40.9773,1931.5853,302.01816)">
      <stop
         offset="0"
         stop-color="#5a9fd4"
         id="stop84" />
      <stop
         offset="1"
         stop-color="#306998"
         id="stop86" />
    </linearGradient>
    <linearGradient
       id="LinearGradient_1"
       gradientUnits="userSpaceOnUse"
       x1="0"
       y1="0"
       x2="316.62201"
       y2="0"
       gradientTransform="rotate(124.996,289.10729,488.52049)">
      <stop
         offset="0"
         stop-color="#ffd43b"
         id="stop89" />
      <stop
         offset="1"
         stop-color="#ffe873"
         id="stop91" />
    </linearGradient>
    <linearGradient
       id="LinearGradient_2"
       gradientUnits="userSpaceOnUse"
       x1="0"
       y1="0"
       x2="742.276"
       y2="0"
       gradientTransform="matrix(0,-1,1,-1.52588e-4,-0.009,0.017)">
      <stop
         offset="0"
         stop-color="#4c8cbf"
         id="stop94" />
      <stop
         offset="1"
         stop-color="#306898"
         id="stop96" />
    </linearGradient>
  </defs>
  <g
     id="Document"
     font-size="16"
     transform="matrix(0.09853277,0,0,-0.09853277,-26.306414,-13.291923)"
     style="font-size:16px;font-family:'Times New Roman';fill:none;stroke:#000000">
    <g
       id="Spread"
       transform="translate(0,-1559.06)">
      <g
         id="Logo">
        <g
           id="Group"
           style="stroke:none">
          <mask
             id="TranspMask">
            <rect
               x="-10%"
               y="-10%"
               width="120.00001%"
               height="120.00001%"
               id="rect101"
               style="fill:url(#RadialGradient);stroke:none" />
          </mask>
          <path
             d="m 1024.64,267.023 c 0,-43.91 -133.401,-79.488 -297.93,-79.488 -164.554,0 -297.952,35.578 -297.952,79.488 0,43.899 133.398,79.468 297.952,79.468 164.529,0 297.93,-35.569 297.93,-79.468 z"
             mask="url(#TranspMask)"
             id="path104"
             inkscape:connector-curvature="0"
             style="fill:#7f7f7f;fill-rule:nonzero;marker-start:none;marker-end:none" />
          <g
             id="Group_1">
            <g
               id="Group_2"
               style="fill-rule:nonzero">
              <path
                 d="m 730.634,1340.65 c -38.008,-0.17 -74.307,-3.41 -106.245,-9.06 -94.083,-16.62 -111.159,-51.41 -111.159,-115.57 v -84.71 h 222.326 v -28.25 H 513.23 429.791 c -64.609,0 -121.198,-38.83 -138.89,-112.713 -20.416,-84.676 -21.314,-137.519 0,-225.942 15.795,-65.809 53.539,-112.697 118.154,-112.697 h 76.444 v 101.547 c 0,73.391 63.488,138.115 138.89,138.115 h 222.06 c 61.832,0 111.168,50.895 111.168,112.98 v 211.67 c 0,60.25 -50.832,105.51 -111.168,115.57 -38.196,6.36 -77.805,9.24 -115.815,9.06 z M 610.39,1272.51 c 22.968,0 41.72,-19.06 41.72,-42.5 0,-23.34 -18.752,-42.23 -41.72,-42.23 -23.049,0 -41.71,18.89 -41.71,42.23 0,23.44 18.661,42.5 41.71,42.5 z"
                 id="path106"
                 inkscape:connector-curvature="0"
                 style="fill:url(#LinearGradient);marker-start:none;marker-end:none" />
              <path
                 d="m 985.349,1103.06 v -98.71 c 0,-76.538 -64.902,-140.967 -138.9,-140.967 h -222.06 c -60.836,0 -111.159,-52.06 -111.159,-112.966 V 538.741 c 0,-60.266 52.379,-95.694 111.159,-112.992 70.372,-20.673 137.865,-24.42 222.06,0 55.977,16.212 111.168,48.82 111.168,112.992 v 84.721 H 735.556 v 28.246 h 222.061 111.173 c 64.6,0 88.69,45.056 111.16,112.697 23.2,69.638 22.23,136.611 0,225.942 -15.97,64.333 -46.46,112.713 -111.16,112.713 z M 860.446,566.971 c 23.051,0 41.721,-18.886 41.721,-42.238 0,-23.432 -18.67,-42.494 -41.721,-42.494 -22.967,0 -41.708,19.062 -41.708,42.494 0,23.352 18.741,42.238 41.708,42.238 z"
                 id="path108"
                 inkscape:connector-curvature="0"
                 style="fill:url(#LinearGradient_1);marker-start:none;marker-end:none" />
            </g>
          </g>
        </g>
        <g
           id="Group_3"
           stroke-miterlimit="79.8403193612775"
           style="fill:#333333;fill-rule:nonzero;stroke:none;stroke-width:0.25;stroke-miterlimit:79.84031677">
          <g
             id="Group_4">
            <path
               d="m 1760.51,867.579 c 0,-59.145 -13.98,-108.217 -41.91,-147.214 -31.19,-44.196 -74.4,-66.944 -129.62,-68.244 -41.59,-1.3 -84.46,11.699 -128.63,39.01 V 438.626 l -70.23,25.348 v 560.556 c 11.73,14.3 26.72,26.65 44.96,37.05 42.35,24.69 93.82,37.37 154.4,38.02 l 0.99,-0.98 c 55.37,0.65 98.04,-22.1 128.02,-68.24 28,-42.249 42.02,-96.506 42.02,-162.801 z m -81.89,4.834 c 0,116.314 -33.31,176.097 -99.92,179.347 -26.51,1.3 -52.38,-2.93 -77.6,-12.67 -20.06,-7.14 -33.64,-14.29 -40.75,-21.44 V 739.864 c 42.68,-26.634 80.52,-38.984 113.5,-37.047 69.85,4.563 104.77,61.095 104.77,169.596 z"
               id="path113"
               inkscape:connector-curvature="0"
               style="marker-start:none;marker-end:none" />
            <path
               d="m 2196.57,701.828 c 0.02,-79.307 -7.95,-134.228 -23.87,-164.775 -15.93,-30.548 -46.31,-54.921 -91.15,-73.133 -36.4,-14.286 -75.71,-22.085 -117.95,-23.399 l -11.68,44.861 c 42.86,5.849 73.05,11.699 90.59,17.548 34.42,11.699 58.13,29.573 71.12,53.635 10.39,19.498 15.59,56.884 15.59,112.143 0.04,12.349 0.04,18.524 0,18.524 -48.73,-22.139 -99.72,-33.202 -152.99,-33.202 -35.09,0 -65.95,11.049 -92.59,33.147 -29.88,24.049 -44.83,54.596 -44.82,91.657 v 296.386 l 72.12,24.38 V 801.284 c 0,-31.834 10.23,-56.369 30.7,-73.607 20.48,-17.21 46.96,-25.497 79.46,-24.86 32.49,0.663 67.26,13.337 104.31,38.035 V 1088.9 h 71.16 z"
               id="path115"
               inkscape:connector-curvature="0"
               style="marker-start:none;marker-end:none" />
            <path
               d="m 2474.59,655.953 c -8.45,-0.65 -16.25,-0.975 -23.4,-0.975 -40.31,0 -71.67,9.587 -94.1,28.76 -22.44,19.174 -33.65,45.659 -33.65,79.443 v 279.779 h -48.79 v 45.93 h 48.79 v 118.9 l 71.18,25.35 v -144.25 h 79.97 v -45.93 h -79.97 V 765.131 c 0,-26.635 7.14,-45.483 21.46,-56.532 12.35,-9.1 31.85,-14.299 58.51,-15.599 z"
               id="path117"
               inkscape:connector-curvature="0"
               style="marker-start:none;marker-end:none" />
            <path
               d="m 2918.76,661.884 h -72.12 v 274.833 c 0,27.948 -6.5,51.983 -19.5,72.123 -14.95,22.74 -35.75,34.12 -62.38,34.12 -32.52,0 -73.14,-17.23 -121.87,-51.66 V 661.884 h -71.18 v 657.126 l 71.18,22.42 V 1042.1 c 45.48,33.1 95.2,49.64 149.14,49.64 37.7,0 68.23,-12.67 91.64,-38 23.4,-25.35 35.09,-56.862 35.09,-94.559 z"
               id="path119"
               inkscape:connector-curvature="0"
               style="marker-start:none;marker-end:none" />
            <path
               d="m 3387.69,883.164 c 0,-63.708 -16.26,-116.679 -48.76,-158.912 -35.76,-47.46 -85.18,-71.183 -148.24,-71.17 -62.43,-0.013 -111.19,23.71 -146.3,71.17 -31.86,42.233 -47.79,95.204 -47.79,158.912 0,59.796 17.23,110.167 51.69,151.116 36.41,43.54 84.2,65.32 143.38,65.32 59.16,0 107.27,-21.78 144.33,-65.32 34.45,-40.949 51.69,-91.32 51.69,-151.116 z m -78.08,-0.067 c 0.02,44.86 -8.43,81.907 -25.33,111.155 -20.15,35.748 -51.35,54.598 -93.59,56.558 -77.99,-4.55 -116.97,-60.418 -116.97,-167.619 v 0 c 0,-49.423 8.15,-90.722 24.47,-123.883 20.88,-42.274 52.22,-63.085 93.98,-62.436 78.31,0.65 117.46,62.734 117.44,186.225 z"
               id="path121"
               inkscape:connector-curvature="0"
               style="marker-start:none;marker-end:none" />
            <path
               d="m 3809.72,661.884 h -71.16 v 290.432 c 0,31.848 -9.58,56.694 -28.77,74.564 -19.18,17.86 -44.7,26.48 -76.55,25.83 -33.8,-0.65 -65.98,-11.7 -96.54,-33.14 V 661.884 h -71.16 v 366.556 c 40.95,29.9 78.65,49.38 113.1,58.48 32.5,8.45 61.11,12.68 85.81,12.68 16.9,0 32.83,-1.63 47.78,-4.88 27.96,-6.5 50.71,-18.52 68.24,-36.07 19.52,-19.5 29.27,-42.88 29.25,-70.18 z"
               id="path123"
               inkscape:connector-curvature="0"
               style="marker-start:none;marker-end:none" />
          </g>
        </g>
        <g
           id="Group_5"
           stroke-miterlimit="79.8403193612775"
           style="fill:#333333;fill-rule:nonzero;stroke:none;stroke-width:0.214;stroke-miterlimit:79.84031677">
          <g
             id="Group_6">
            <path
               d="m 1496.3,248.019 c 0,-15.55 -7.44,-28.367 -22.33,-38.447 v -0.256 c -10.25,-6.496 -22.21,-9.742 -35.88,-9.742 -9.05,0 -18.36,2.05 -27.93,6.154 -8.89,3.591 -16.23,8.122 -22.04,13.593 l 7.95,13.076 c 13.5,-11.289 27.6,-16.849 42.3,-16.682 10.09,0.175 18.12,2.392 24.11,6.656 8.03,5.972 12.05,13.568 12.05,22.783 0,6.997 -2.23,12.67 -6.68,17.023 -4.46,4.35 -11.65,8.147 -21.58,11.39 l -16.12,5.481 c -14.02,4.613 -23.68,9.738 -28.98,15.376 -6.32,6.663 -9.49,15.29 -9.49,25.883 0,13.667 4.75,24.772 14.23,33.314 9.49,8.542 22.01,12.813 37.55,12.813 13.85,0 27.44,-4.873 40.76,-14.611 l -7.94,-12.307 c -10.42,7.684 -21.02,11.528 -31.78,11.528 -9.92,0 -17.69,-2.392 -23.33,-7.175 -5.64,-4.784 -8.54,-11.276 -8.71,-19.476 -0.17,-10.931 9.06,-19.388 27.68,-25.367 l 18.2,-5.894 c 12.99,-4.271 22.57,-9.994 28.73,-17.173 6.15,-7.176 9.23,-16.49 9.23,-27.94 z"
               id="path127"
               inkscape:connector-curvature="0"
               style="marker-start:none;marker-end:none" />
            <path
               d="m 1650.59,284.675 v 0 c 0,-21.871 -5.89,-41.091 -17.68,-57.663 -13.33,-18.625 -30.58,-27.94 -51.77,-27.936 -21.19,-0.004 -38.44,9.311 -51.77,27.936 -11.78,16.576 -17.68,35.795 -17.68,57.663 0,21.701 6.05,40.412 18.16,56.129 13.13,17.088 30.19,25.63 51.16,25.63 21.15,0 38.29,-8.542 51.42,-25.63 12.11,-15.717 18.16,-34.428 18.16,-56.129 z m -21.52,0 c 0,17.433 -3.93,32.56 -11.79,45.384 -9.05,14.696 -21.1,22.046 -36.13,22.049 -15.21,-0.003 -27.34,-7.353 -36.39,-22.049 -8.03,-12.824 -12.05,-27.951 -12.05,-45.384 0,-18.632 4.1,-34.784 12.3,-48.459 9.23,-15.041 21.19,-22.565 35.88,-22.565 14.69,0 26.65,7.524 35.88,22.565 8.2,13.675 12.3,29.827 12.3,48.459 z"
               id="path129"
               inkscape:connector-curvature="0"
               style="marker-start:none;marker-end:none" />
            <path
               d="m 1763.56,362.807 -6.66,-13.076 h -64.57 v -55.058 h 54.06 l -6.95,-12.827 h -47.11 V 201.39 h -18.46 v 161.417 z"
               id="path131"
               inkscape:connector-curvature="0"
               style="marker-start:none;marker-end:none" />
            <path
               d="m 1883.22,350.293 h -47.43 V 201.39 h -18.95 v 148.903 h -48.18 l 5.89,12.571 108.67,0.253 z"
               id="path133"
               inkscape:connector-curvature="0"
               style="marker-start:none;marker-end:none" />
            <path
               d="m 2085.35,363.861 -42.29,-159.66 -14.52,-5.185 -39.36,139.56 -35.06,-134.375 -14.59,-5.125 -45.11,160.428 18.09,6.642 36.23,-130.72 34.36,124.078 18.45,6.681 36.19,-130.962 36.57,130.965 z"
               id="path135"
               inkscape:connector-curvature="0"
               style="marker-start:none;marker-end:none" />
            <path
               d="m 2217.37,201.39 h -19.74 l -17.4,50.238 h -62.3 l -18.48,-50.238 h -14.07 l 58.44,158.883 18.19,5.912 z m -40.93,62.314 -25.69,76.456 -28.39,-76.456 z"
               id="path137"
               inkscape:connector-curvature="0"
               style="marker-start:none;marker-end:none" />
            <path
               d="m 2333.02,201.39 h -22.57 l -42.8,75.576 h -13.59 V 201.39 h -18.7 v 161.727 h 50.99 c 12.81,0 23.65,-4.232 32.54,-12.696 8.88,-8.464 13.32,-18.764 13.32,-30.905 0,-12.311 -4.11,-22.487 -12.32,-30.523 -8.21,-8.037 -18.48,-12.056 -30.8,-12.056 z m -19.77,118.657 c 0,7.695 -2.9,14.575 -8.71,20.643 -5.81,6.069 -12.64,9.101 -20.5,9.101 h -29.98 v -59.748 h 29.73 c 8.71,0 15.8,2.861 21.26,8.591 5.47,5.727 8.2,12.867 8.2,21.413 z"
               id="path139"
               inkscape:connector-curvature="0"
               style="marker-start:none;marker-end:none" />
            <path
               d="m 2446.07,363.117 -6.41,-13.073 h -64.84 v -55.371 h 53.82 l -6.66,-12.827 h -47.16 v -67.629 h 69.71 V 201.39 h -88.16 v 161.474 z"
               id="path141"
               inkscape:connector-curvature="0"
               style="marker-start:none;marker-end:none" />
            <path
               d="m 2637.27,362.807 -6.66,-13.076 h -64.58 v -55.058 h 54.07 l -6.95,-12.827 h -47.12 V 201.39 h -18.46 v 161.417 z"
               id="path143"
               inkscape:connector-curvature="0"
               style="marker-start:none;marker-end:none" />
            <path
               d="m 2781.33,284.675 v 0 c 0,-21.871 -5.9,-41.091 -17.68,-57.663 -13.33,-18.625 -30.59,-27.94 -51.77,-27.936 -21.19,-0.004 -38.44,9.311 -51.77,27.936 -11.79,16.576 -17.68,35.795 -17.68,57.663 0,21.701 6.05,40.412 18.16,56.129 13.13,17.088 30.18,25.63 51.16,25.63 21.15,0 38.29,-8.542 51.42,-25.63 12.11,-15.717 18.16,-34.428 18.16,-56.129 z m -21.53,0 c 0.01,17.433 -3.92,32.56 -11.78,45.384 -9.06,14.696 -21.1,22.046 -36.14,22.049 -15.2,-0.003 -27.33,-7.353 -36.38,-22.049 -8.03,-12.824 -12.05,-27.951 -12.05,-45.384 0,-18.632 4.1,-34.784 12.3,-48.459 9.22,-15.041 21.18,-22.565 35.88,-22.565 14.69,0 26.65,7.524 35.88,22.565 8.2,13.675 12.3,29.827 12.29,48.459 z"
               id="path145"
               inkscape:connector-curvature="0"
               style="marker-start:none;marker-end:none" />
            <path
               d="m 2919.92,256.223 c 0,-16.743 -5.6,-30.453 -16.79,-41.131 -11.2,-10.681 -25.25,-16.02 -42.16,-16.016 -16.41,-0.004 -30.12,5.293 -41.14,15.888 -11.03,10.593 -16.54,24.264 -16.54,41.01 v 103.801 l 19.21,6.41 V 259.06 c 0,-29.901 13.34,-44.765 40.01,-44.594 13.34,0 23.81,4.1 31.42,12.301 7.6,8.2 11.41,19.131 11.41,32.798 v 103.271 h 14.58 z"
               id="path147"
               inkscape:connector-curvature="0"
               style="marker-start:none;marker-end:none" />
            <path
               d="m 3071.4,201.39 h -18.47 l -90.46,132.239 V 201.39 h -13.08 v 159.663 l 14.84,5.125 94.34,-137.913 v 134.571 h 12.83 z"
               id="path149"
               inkscape:connector-curvature="0"
               style="marker-start:none;marker-end:none" />
            <path
               d="m 3217.49,279.525 c 0,-21.01 -5.81,-39.29 -17.42,-54.837 -12.47,-16.742 -28.1,-25.114 -46.89,-25.114 -17.6,0 -34.6,6.667 -51,19.996 v 143.547 l 51.77,-0.31 c 20.67,-0.174 36.81,-9.058 48.43,-26.651 10.07,-15.547 15.11,-34.421 15.11,-56.631 z m -21.27,-2.054 c 0,48.338 -18.28,72.509 -54.84,72.509 h -20.24 V 223.923 c 8.2,-7.517 17.6,-11.272 28.19,-11.272 14.69,0 26.48,7.086 35.36,21.266 7.69,12.468 11.53,26.986 11.53,43.554 z"
               id="path151"
               inkscape:connector-curvature="0"
               style="marker-start:none;marker-end:none" />
            <path
               d="m 3359.74,201.39 h -19.73 l -17.41,50.238 h -62.3 l -18.48,-50.238 h -14.06 l 58.43,158.883 18.2,5.912 z m -40.93,62.314 -25.68,76.456 -28.39,-76.456 z"
               id="path153"
               inkscape:connector-curvature="0"
               style="marker-start:none;marker-end:none" />
            <path
               d="m 3464.07,350.293 h -47.42 V 201.39 h -18.96 v 148.903 h -48.17 l 5.89,12.571 108.66,0.253 z"
               id="path155"
               inkscape:connector-curvature="0"
               style="marker-start:none;marker-end:none" />
            <path
               d="m 3503.49,201.39 h -18.95 v 158.136 l 18.95,6.406 z"
               id="path157"
               inkscape:connector-curvature="0"
               style="marker-start:none;marker-end:none" />
            <path
               d="m 3665.55,284.675 v 0 c 0,-21.871 -5.9,-41.091 -17.69,-57.663 -13.32,-18.625 -30.58,-27.94 -51.77,-27.936 -21.18,-0.004 -38.43,9.311 -51.76,27.936 -11.79,16.576 -17.68,35.795 -17.68,57.663 0,21.701 6.05,40.412 18.16,56.129 13.13,17.088 30.18,25.63 51.16,25.63 21.14,0 38.29,-8.542 51.42,-25.63 12.1,-15.717 18.16,-34.428 18.16,-56.129 z m -21.53,0 c 0.01,17.433 -3.92,32.56 -11.79,45.384 -9.05,14.696 -21.09,22.046 -36.13,22.049 -15.2,-0.003 -27.34,-7.353 -36.39,-22.049 -8.03,-12.824 -12.04,-27.951 -12.04,-45.384 0,-18.632 4.1,-34.784 12.3,-48.459 9.22,-15.041 21.18,-22.565 35.88,-22.565 14.69,0 26.65,7.524 35.87,22.565 8.21,13.675 12.31,29.827 12.3,48.459 z"
               id="path159"
               inkscape:connector-curvature="0"
               style="marker-start:none;marker-end:none" />
            <path
               d="m 3810.83,201.39 h -18.47 L 3701.9,333.629 V 201.39 h -13.08 v 159.663 l 14.84,5.125 94.34,-137.913 v 134.571 h 12.83 z"
               id="path161"
               inkscape:connector-curvature="0"
               style="marker-start:none;marker-end:none" />
          </g>
        </g>
        <rect
           x="-35.676998"
           y="-742.27502"
           width="71.355003"
           height="1484.55"
           rx="25.226999"
           transform="rotate(90.0091,1278.1401,1788.9669)"
           stroke-miterlimit="79.8403193612775"
           id="rect165"
           style="fill:url(#LinearGradient_2);stroke:none;stroke-width:0.5;stroke-linejoin:miter;stroke-miterlimit:79.84031677" />
      </g>
      <g
         id="Layer_1" />
    </g>
  </g>
</svg>
