<?xml version="1.0" encoding="UTF-8" standalone="no"?>
<!-- Created with Inkscape (http://www.inkscape.org/) -->

<svg
   xmlns:dc="http://purl.org/dc/elements/1.1/"
   xmlns:cc="http://creativecommons.org/ns#"
   xmlns:rdf="http://www.w3.org/1999/02/22-rdf-syntax-ns#"
   xmlns:svg="http://www.w3.org/2000/svg"
   xmlns="http://www.w3.org/2000/svg"
   xmlns:sodipodi="http://sodipodi.sourceforge.net/DTD/sodipodi-0.dtd"
   xmlns:inkscape="http://www.inkscape.org/namespaces/inkscape"
   id="svg2"
   version="1.1"
   inkscape:version="0.91 r13725"
   xml:space="preserve"
   width="300.5"
   height="111"
   viewBox="0 0 300.49999 111"
   sodipodi:docname="slido.svg"
   inkscape:export-filename="/home/richard/Downloads/logo-slido/g12.png"
   inkscape:export-xdpi="90"
   inkscape:export-ydpi="90"><metadata
     id="metadata8"><rdf:RDF><cc:Work
         rdf:about=""><dc:format>image/svg+xml</dc:format><dc:type
           rdf:resource="http://purl.org/dc/dcmitype/StillImage" /><dc:title></dc:title></cc:Work></rdf:RDF></metadata><defs
     id="defs6"><clipPath
       clipPathUnits="userSpaceOnUse"
       id="clipPath16"><path
         d="m 0,595.28 841.89,0 L 841.89,0 0,0 0,595.28 Z"
         id="path18"
         inkscape:connector-curvature="0" /></clipPath></defs><sodipodi:namedview
     pagecolor="#ffffff"
     bordercolor="#666666"
     borderopacity="1"
     objecttolerance="10"
     gridtolerance="10"
     guidetolerance="10"
     inkscape:pageopacity="0"
     inkscape:pageshadow="2"
     inkscape:window-width="1920"
     inkscape:window-height="1021"
     id="namedview4"
     showgrid="false"
     inkscape:zoom="3.5882747"
     inkscape:cx="236.23859"
     inkscape:cy="103.31624"
     inkscape:window-x="0"
     inkscape:window-y="0"
     inkscape:window-maximized="1"
     inkscape:current-layer="g10"
     showguides="true"
     inkscape:guide-bbox="true"
     showborder="true"><sodipodi:guide
       position="81.654837,105.62179"
       orientation="0,1"
       id="guide3453" /></sodipodi:namedview><g
     id="g10"
     inkscape:groupmode="layer"
     inkscape:label="slido-logo-vector-cmyk"
     transform="matrix(1.25,0,0,-1.25,0,111.00002)"><g
       id="g12"
       transform="matrix(0.37949687,0,0,0.37949687,-40.095609,-70.987104)"><g
         id="g14"
         clip-path="url(#clipPath16)"><g
           id="g20"
           transform="translate(199.9814,289.8105)"><path
             d="m 0,0 c -18.563,2.979 -23.273,4.46 -23.273,10.155 0,6.693 2.972,9.657 17.33,9.657 14.358,0 45.063,-3.958 45.063,-3.958 l 0.495,27.727 c 0,0 -30.212,6.19 -48.034,6.19 -25.991,0 -48.038,-11.639 -48.038,-40.354 0,-11.033 2.54,-18.735 7.778,-24.392 7.334,-7.915 20.003,-11.797 38.768,-14.975 17.338,-2.964 20.06,-4.951 20.06,-10.395 0,-6.435 -4.21,-9.415 -20.06,-9.415 -12.628,0 -43.32,3.96 -43.32,3.96 l -0.997,-27.967 c 0,0 29.221,-5.943 47.535,-5.943 30.954,0 50.014,11.141 50.014,40.103 0,10.831 -1.96,18.729 -6.851,24.632 C 30.071,-7.241 18.661,-2.939 0,0"
             style="fill:#373734;fill-opacity:1;fill-rule:nonzero;stroke:none"
             id="path22"
             inkscape:connector-curvature="0" /></g><g
           id="g24"
           transform="translate(271.5996,274.8359)"><path
             d="m 0,0 0,-61.768 33.172,0 0,61.768 0,111.543 L 0,111.543 0,0 Z"
             style="fill:#373734;fill-opacity:1;fill-rule:nonzero;stroke:none"
             id="path26"
             inkscape:connector-curvature="0" /></g><g
           id="g28"
           transform="translate(337.9839,274.8359)"><path
             d="m 0,0 0,-61.768 33.176,0 0,61.768 0,61.781 L 0,61.781 0,0 Z"
             style="fill:#373734;fill-opacity:1;fill-rule:nonzero;stroke:none"
             id="path30"
             inkscape:connector-curvature="0" /></g><g
           id="g32"
           transform="translate(535.8789,274.8359)"><path
             d="m 0,0 -0.013,0 0,-30.33 c 0,0 -14.362,-3.209 -24.018,-3.459 -15.298,0.483 -20.109,9.826 -20.286,33.789 l 0.012,0 c -0.004,0.463 -0.016,0.887 -0.016,1.362 0,24.513 7.681,33.424 20.059,33.424 C -13.617,34.786 0,32.563 0,32.563 L 0,0 Z m 0,61.525 c 0,0 -17.576,3.22 -26.741,3.22 -33.668,0 -51.248,-18.572 -51.248,-63.383 0,-0.467 0.024,-0.899 0.024,-1.362 l -0.012,0 c 0.234,-42.414 11.266,-64.489 48.252,-64.489 12.628,0 29.712,7.673 29.712,7.673 l 0,-4.952 33.177,0 0,61.768 0.008,0 0,111.543 -33.172,0 0,-50.018 z"
             style="fill:#373734;fill-opacity:1;fill-rule:nonzero;stroke:none"
             id="path34"
             inkscape:connector-curvature="0" /></g><g
           id="g36"
           transform="translate(419.1816,260.2236)"><path
             d="m 0,0 c -13.02,0 -23.575,-10.564 -23.575,-23.576 0,-13.016 10.555,-23.579 23.575,-23.579 13.012,0 23.576,10.563 23.576,23.579 C 23.576,-10.564 13.012,0 0,0"
             style="fill:#62c132;fill-opacity:1;fill-rule:nonzero;stroke:none"
             id="path38"
             inkscape:connector-curvature="0" /></g><g
           id="g40"
           transform="translate(664.9053,273.3799)"><path
             d="m 0,0 c 0,22.196 -4.822,33.783 -22.688,33.783 -17.867,0 -22.693,-11.587 -22.693,-33.783 0,-22.217 4.826,-34.047 22.693,-34.047 C -4.822,-34.047 0,-22.217 0,0 m 32.825,0 c 0,-37.18 -13.515,-63.251 -55.513,-63.251 -42.002,0 -55.518,26.071 -55.518,63.251 0,37.164 13.516,62.989 55.518,62.989 C 19.31,62.989 32.825,37.164 32.825,0"
             style="fill:#373734;fill-opacity:1;fill-rule:nonzero;stroke:none"
             id="path42"
             inkscape:connector-curvature="0" /></g></g></g></g></svg>