<?xml version="1.0" encoding="UTF-8" standalone="no"?>
<!-- Generator: Adobe Illustrator 19.2.1, SVG Export Plug-In . SVG Version: 6.00 Build 0)  -->

<svg
   xmlns:dc="http://purl.org/dc/elements/1.1/"
   xmlns:cc="http://creativecommons.org/ns#"
   xmlns:rdf="http://www.w3.org/1999/02/22-rdf-syntax-ns#"
   xmlns:svg="http://www.w3.org/2000/svg"
   xmlns="http://www.w3.org/2000/svg"
   xmlns:sodipodi="http://sodipodi.sourceforge.net/DTD/sodipodi-0.dtd"
   xmlns:inkscape="http://www.inkscape.org/namespaces/inkscape"
   version="1.1"
   id="Layer_1"
   x="0px"
   y="0px"
   viewBox="0 0 392.89999 244.40692"
   xml:space="preserve"
   inkscape:version="0.91 r13725"
   sodipodi:docname="stickermule.svg"
   width="392.89999"
   height="244.40692"><metadata
     id="metadata3767"><rdf:RDF><cc:Work
         rdf:about=""><dc:format>image/svg+xml</dc:format><dc:type
           rdf:resource="http://purl.org/dc/dcmitype/StillImage" /><dc:title></dc:title></cc:Work></rdf:RDF></metadata><defs
     id="defs3765" /><sodipodi:namedview
     pagecolor="#ffffff"
     bordercolor="#666666"
     borderopacity="1"
     objecttolerance="10"
     gridtolerance="10"
     guidetolerance="10"
     inkscape:pageopacity="0"
     inkscape:pageshadow="2"
     inkscape:window-width="1920"
     inkscape:window-height="1021"
     id="namedview3763"
     showgrid="false"
     showguides="true"
     inkscape:guide-bbox="true"
     inkscape:zoom="1.694"
     inkscape:cx="95.24309"
     inkscape:cy="145.81275"
     inkscape:window-x="0"
     inkscape:window-y="0"
     inkscape:window-maximized="1"
     inkscape:current-layer="Layer_1"
     fit-margin-top="20"
     fit-margin-left="20"
     fit-margin-right="20"
     fit-margin-bottom="20"><sodipodi:guide
       position="-4.013223,167.9497"
       orientation="1,0"
       id="guide3769" /><sodipodi:guide
       position="396.2229,100.06305"
       orientation="1,0"
       id="guide3771" /><sodipodi:guide
       position="15.467296,321.43259"
       orientation="0,1"
       id="guide3773" /><sodipodi:guide
       position="257.49799,-77.622904"
       orientation="0,1"
       id="guide3775" /></sodipodi:namedview><style
     type="text/css"
     id="style3732">
	.Arched_x0020_Green{fill:url(#SVGID_1_);stroke:#FFFFFF;stroke-width:0.25;stroke-miterlimit:1;}
	.st0{fill:#4E2817;}
	.st1{fill:#F26922;}
	.st2{fill-rule:evenodd;clip-rule:evenodd;fill:#4E2817;}
</style><linearGradient
     id="SVGID_1_"
     gradientUnits="userSpaceOnUse"
     x1="250"
     y1="250"
     x2="250.70711"
     y2="249.29289"><stop
       offset="0"
       style="stop-color:#1EAB4B"
       id="stop3735" /><stop
       offset="0.9831"
       style="stop-color:#19361A"
       id="stop3737" /></linearGradient><path
     class="st0"
     d="m 36.1,224.40693 c -6,0 -11.3,-0.7 -16.1,-5.4 l 6.2,-6.2 c 3.1,3.1 7.2,3.6 10.1,3.6 3.3,0 6.7,-1.1 6.7,-3.9 0,-1.9 -1,-3.2 -4,-3.5 l -6,-0.6 c -6.8,-0.7 -11,-3.6 -11,-10.6 0,-7.8 6.9,-12.1 14.6,-12.1 5.9,0 10.8,1 14.5,4.4 l -5.8,5.9 c -2.2,-2 -5.5,-2.5 -8.8,-2.5 -3.8,0 -5.4,1.7 -5.4,3.6 0,1.4 0.6,3 3.9,3.3 l 6,0.6 c 7.5,0.7 11.3,4.7 11.3,11.1 -0.2,8.3 -7.3,12.3 -16.2,12.3 z"
     id="path3739"
     inkscape:connector-curvature="0"
     style="fill:#4e2817" /><path
     class="st0"
     d="m 68.6,224.00693 c -7.7,0 -11,-5.4 -11,-10.8 l 0,-18.7 -4,0 0,-7.3 4,0 0,-11.2 9.4,0 0,11.2 6.7,0 0,7.2 -6.7,0 0,18.2 c 0,2.2 1,3.4 3.3,3.4 l 3.4,0 0,8 -5.1,0 z"
     id="path3741"
     inkscape:connector-curvature="0"
     style="fill:#4e2817" /><path
     class="st0"
     d="m 77.9,179.70693 0,-7.7 9.7,0 0,7.7 -9.7,0 z m 0.2,44.3 0,-37.8 9.4,0 0,37.8 -9.4,0 z"
     id="path3743"
     inkscape:connector-curvature="0"
     style="fill:#4e2817" /><path
     class="st0"
     d="m 108.9,224.40693 c -7.6,0 -16.9,-4.1 -16.9,-19.4 0,-15.3 9.4,-19.3 16.9,-19.3 5.2,0 9.2,1.6 12.5,5.1 l -6.4,6.4 c -2,-2.1 -3.6,-3 -6.1,-3 -2.3,0 -4,0.8 -5.4,2.5 -1.5,1.8 -2.1,4.4 -2.1,8.4 0,4 0.7,6.6 2.1,8.4 1.4,1.7 3.1,2.5 5.4,2.5 2.5,0 4.1,-0.9 6.1,-3 l 6.4,6.3 c -3.4,3.5 -7.3,5.1 -12.5,5.1 z"
     id="path3745"
     inkscape:connector-curvature="0"
     style="fill:#4e2817" /><path
     class="st0"
     d="m 147.4,224.00693 -9.3,-15.8 -4,4.5 0,11.3 -9.4,0 0,-51.7 9.4,0 0,29.3 12.6,-15.5 11.4,0 -13.5,15.3 14.5,22.6 -11.7,0 z"
     id="path3747"
     inkscape:connector-curvature="0"
     style="fill:#4e2817" /><path
     class="st0"
     d="m 167,208.00693 c 0,4.9 3,8.4 8.3,8.4 4.1,0 6.2,-1.2 8.6,-3.6 l 5.7,5.6 c -3.8,3.8 -7.6,6 -14.4,6 -8.9,0 -17.5,-4.1 -17.5,-19.4 0,-12.3 6.7,-19.3 16.5,-19.3 10.5,0 16.5,7.7 16.5,18.1 l 0,4.2 -23.7,0 z m 13.5,-10.5 c -1,-2.3 -3.1,-3.9 -6.3,-3.9 -3.2,0 -5.3,1.7 -6.3,3.9 -0.6,1.4 -0.8,2.4 -0.9,4.1 l 14.4,0 c -0.1,-1.7 -0.3,-2.7 -0.9,-4.1 z"
     id="path3749"
     inkscape:connector-curvature="0"
     style="fill:#4e2817" /><path
     class="st0"
     d="m 215.7,196.50693 c -1.5,-1.5 -2.7,-2.3 -5,-2.3 -2.9,0 -6.1,2.2 -6.1,7 l 0,22.8 -9.4,0 0,-37.8 9.2,0 0,3.6 c 1.8,-2.2 5.5,-4.1 9.5,-4.1 3.7,0 6.3,0.9 8.9,3.6 l -7.1,7.2 z"
     id="path3751"
     inkscape:connector-curvature="0"
     style="fill:#4e2817" /><path
     class="st1"
     d="m 265.3,185.70693 c -4.7,0 -8.1,1.5 -11.3,4.8 -2.4,-3.3 -5.8,-4.8 -10,-4.8 -3.5,0 -7,1.4 -9.4,3.9 l 0,-3.4 -9.2,0 0,37.8 9.4,0 0,-22.9 c 0,-5.2 3.3,-6.9 6.3,-6.9 3,0 6.2,1.7 6.2,6.9 l 0,22.9 9.4,0 0,-23.1 c 0,-4.9 3.4,-6.7 6.3,-6.7 3,0 6.2,1.7 6.2,6.9 l 0,22.9 9.4,0 0,-24.2 c 0,-4.1 -1.1,-7.7 -4.1,-10.8 -2,-2 -5.4,-3.3 -9.2,-3.3 z"
     id="path3753"
     inkscape:connector-curvature="0"
     style="fill:#f26922" /><path
     class="st1"
     d="m 306.3,209.00693 c 0,5.2 -3.3,6.9 -6.3,6.9 -3,0 -6.2,-1.7 -6.2,-6.9 l 0,-22.8 -9.4,0 0,24.2 c 0,4.1 0.8,7.7 3.8,10.7 2.1,2.1 5.2,3.3 8.9,3.3 3.5,0 7,-1.3 9.4,-3.9 l 0,3.5 9.2,0 0,-37.8 -9.4,0 0,22.8 z"
     id="path3755"
     inkscape:connector-curvature="0"
     style="fill:#f26922" /><path
     class="st1"
     d="m 331.2,212.60693 0,-40.3 -9.4,0 0,40.9 c 0,5.4 3.3,10.8 11,10.8 l 5.4,0 0,-8 -3.6,0 c -2.4,0 -3.4,-1.1 -3.4,-3.4 z"
     id="path3757"
     inkscape:connector-curvature="0"
     style="fill:#f26922" /><path
     class="st1"
     d="m 372.9,203.80693 c 0,-10.4 -6,-18.1 -16.5,-18.1 -9.8,0 -16.5,7 -16.5,19.3 0,15.3 8.6,19.4 17.5,19.4 6.8,0 10.5,-2.1 14.4,-6 l -5.7,-5.6 c -2.4,2.4 -4.4,3.6 -8.6,3.6 -5.3,0 -8.3,-3.6 -8.3,-8.4 l 23.7,0 0,-4.2 z m -23.7,-2.2 c 0.1,-1.7 0.3,-2.7 0.9,-4.1 1,-2.3 3.1,-3.9 6.3,-3.9 3.2,0 5.3,1.7 6.3,3.9 0.6,1.4 0.8,2.4 0.9,4.1 l -14.4,0 z"
     id="path3759"
     inkscape:connector-curvature="0"
     style="fill:#f26922" /><path
     class="st2"
     d="m 213.9,161.20693 c -1.3,0.6 -3.1,0.5 -5,0.6 -1.6,0 -3.9,0.1 -4.8,-0.8 -0.5,-0.5 -0.7,-1.4 -0.7,-2 0,-0.7 0.1,-1.5 0.3,-2.3 0.2,-0.9 0.4,-2.1 0,-2.5 -0.4,-0.6 -1.9,-0.3 -2.6,-0.8 -0.8,-0.5 -1,-1.5 -1.3,-2.8 -0.1,-0.4 -0.3,-0.7 -0.4,-1 -0.2,-1.9 0.4,-4.4 0.8,-6.3 0.5,-2 1,-3.9 1.4,-5.8 0.5,-2.8 0.7,-6 0.5,-9 -0.1,-1.5 -0.3,-2.7 -0.1,-4 0.2,-1.2 0.7,-2.2 1,-3.4 0.1,-0.4 0,-0.8 0.1,-1.2 0,-0.4 0.3,-0.7 0.3,-1 0,-0.8 -0.2,-1.8 -0.3,-2.8 -0.2,-2.7 0,-6.4 0.2,-8.7 0.1,-0.8 0.4,-1.7 -0.1,-2.1 -2.8,0 -5.3,0.5 -7.9,0.8 -6.9,0.9 -15.6,1 -22.3,-0.3 -0.6,-0.1 -1.3,-0.1 -1.9,-0.3 -4.7,-1.1 -9.1,-3.1 -12.5,-5.800005 -0.5,-0.4 -1.1,-0.9 -1.7,-1.3 -0.6,-0.4 -1.2,-1.1 -1.7,-1.3 -2.7,-1.3 -6.3,0.2 -7.4,1.9 -0.4,0.7 -0.8,1.600005 -1.2,2.400005 -0.4,0.8 -0.8,1.6 -1.1,2.4 -1.8,4.1 -3.8,8 -5.6,12.1 -1,2.4 -2.2,5 -3,7.6 -1.6,5.6 -0.1,13.2 1.2,18.5 0.1,0.5 0.4,1 0.6,1.5 0.4,1.3 1.3,3 2.3,3.9 0.5,0.5 1.4,0.7 2,1.2 0.7,0.6 1.3,1.9 1.9,3 0.2,0.4 0.6,1 0.9,1.5 0.7,1.2 0.9,2.3 -0.4,3 -1,0.5 -2.5,0.7 -3.9,0.8 -0.6,0.2 -0.4,1 -0.8,1.4 -0.2,0.2 -1.2,0.6 -1.7,0.8 -1.8,0.5 -5,0.5 -6.4,0 -0.7,-0.3 -1.5,-0.8 -1.7,-1.4 -0.4,-1.1 0.5,-2.6 -0.3,-3.4 -0.4,-0.4 -1.1,-0.3 -1.8,-0.6 -1,-0.4 -1.9,-1.3 -2.3,-2.5 -1.1,-2.8 -0.4,-7.1 -0.5,-10.5 0,-1 -0.2,-2.1 -0.2,-3.2 -0.1,-2 -0.5,-4 -0.8,-6 -0.1,-1 -0.4,-1.8 -0.6,-2.7 -0.3,-1.4 -0.6,-3 -1,-4.4 -0.5,-1.6 -0.5,-3.1 0.1,-4.5 0.1,-0.4 0.5,-0.7 0.8,-1.2 0.3,-0.8 0.4,-1.7 0.4,-2.4 -0.2,-0.4 -1.2,-0.1 -1.4,-0.5 -0.6,-4.4 -1.2,-8.7 -1.6,-13.3 -0.1,-1.5 -0.1,-3.100005 -0.3,-4.700005 -0.3,-3.1 0,-6.3 -0.3,-9.3 -0.1,-1.5 -0.5,-2.9 -0.7,-4.3 -0.5,-4 -1.6,-9.1 -0.8,-13.3 0.5,-2.7 1.5,-4.8 3,-6.8 1.1,-1.4 2.2,-2.7 3.5,-3.9 1.2,-1.2 2.6,-2.3 4.1,-3.4 0.9,-0.7 1.9,-1.5 3,-1.9 2.3,-1.1 5.3,-2 8.5,-2.1 3.2,-0.1 6.8,-0.2 9.9,0.4 3,0.5 6,1.1 9,1.7 2.9,0.6 5.7,1.4 8.5,2.1 0.4,0.1 0.7,0.3 1,0.4 0.9,0.2 1.9,0.3 2.8,0.6 2.6,0.7 5.9,1 9,1 3.4,0 6.4,-0.1 9.2,-0.8 0.4,-0.1 0.7,-0.3 1.2,-0.5 0.4,-0.2 1,-0.1 1.4,-0.3 0.3,-0.1 0.6,-0.4 0.9,-0.5 1.6,-0.8 3,-1.5 4.4,-2.5 1.1,-0.8 2.1,-1.5 3.6,-2.1 0.7,-0.3 1.3,-0.6 2,-0.8 1.4,-0.5 3,-0.9 4.1,-1.6 1.7,-1.1 3,-2.7 4.4,-3.9 1.5,-1.3 3,-2.5 4.6,-3.8 3.2,-2.5 6.4,-4.8 9.4,-7.2 1.5,-1.2 3.2,-2.4 5,-3.4 3.5,-2 7,-4.3 12,-4.7 2,-0.1 4,-0.2 6,0.1 0.5,0.1 1.3,0.4 1.8,0.3 0.5,-0.1 0.9,-0.9 1.3,-1.6 0.7,-1.3 1.3,-2.2 1.9,-3.8 0.4,-1 0.2,-2 1.2,-1.9 1,0 0.9,2.7 0.9,3.7 0.1,1.2 -0.1,2.8 0.1,3.6 0.1,0.6 0.9,1.4 1.7,1.4 0.6,0 0.9,-0.4 1.4,-0.8 0.5,-0.3 1,-0.5 1.4,-0.8 0.8,-0.6 1.8,-1.6 2.6,-2.5 0.7,-0.7 1.8,-2.3 2.9,-2.2 2,0.2 0,3.1 -0.4,4.1 -1,2.3 -2,3.9 -3.2,6.1 -0.5,0.9 -1.6,2.1 -1.6,3 0,0.6 0.5,1.1 0.8,1.7 0.1,0.3 0.2,0.7 0.3,1 0.7,1.6 1.2,3.8 1.7,5.6 0.5,1.5 0.8,3.2 1.4,4.7 0.5,1.5 1.3,2.9 1.9,4.3 0.2,0.4 0.2,0.9 0.3,1.2 1.3,3.2 2.5,6.9 4,10 0.6,1.3 1.5,2.8 1.5,4.7 0,2 -1.1,3 -2,4.5 -0.5,0.8 -1.2,2 -1.9,2.3 -0.5,0.2 -1.2,0 -1.7,0.1 -0.8,0.1 -1.3,0.6 -2,0.7 -1.9,0.2 -3.6,-1.2 -4.1,-2.6 -0.2,-0.5 -0.1,-1.1 -0.2,-1.7 -0.4,-2.2 -1.5,-3.3 -3.1,-4.8 -1,-0.9 -1.8,-1.6 -3,-2.3 -1.8,-0.9 -3.7,-1.5 -5.6,-2.5 -0.7,-0.4 -1.5,-0.7 -2.1,-0.6 -1,0.2 -2,1.8 -2.8,2.8 -4.9,6.4 -9.2,13 -13.9,19.3 -3.1,4.2 -6.5,8.4 -9,13.2 -0.6,1.2 -1,2.6 -1.5,4.000005 -0.5,1.4 -0.7,2.9 -1.2,4.3 -1.8,5.2 -2.4,11.6 -4.1,17.1 -0.2,0.6 -0.2,1.2 -0.4,1.9 -0.8,2.8 -1.5,6 -2.4,9 -0.7,2.2 -0.9,5.2 -1,8.1 -0.1,2.7 -0.2,6.6 0.8,8.3 0.5,0.9 2.4,1.3 3.1,2.2 0.5,0.7 0.8,2 1.3,2.8 0.3,0.6 1.3,1.9 1.2,2.8 -0.1,0.7 -0.7,1.2 -1.2,1.4 -0.6,0.3 -1.4,0.1 -2,0.4 -0.9,0.5 -0.6,1.3 -1.3,1.7 z"
     id="path3761"
     inkscape:connector-curvature="0"
     style="clip-rule:evenodd;fill:#4e2817;fill-rule:evenodd" /></svg>