<?xml version="1.0" encoding="UTF-8" standalone="no"?>
<!-- Created with Inkscape (http://www.inkscape.org/) -->

<svg
   xmlns:dc="http://purl.org/dc/elements/1.1/"
   xmlns:cc="http://creativecommons.org/ns#"
   xmlns:rdf="http://www.w3.org/1999/02/22-rdf-syntax-ns#"
   xmlns:svg="http://www.w3.org/2000/svg"
   xmlns="http://www.w3.org/2000/svg"
   xmlns:sodipodi="http://sodipodi.sourceforge.net/DTD/sodipodi-0.dtd"
   xmlns:inkscape="http://www.inkscape.org/namespaces/inkscape"
   id="svg3392"
   version="1.1"
   inkscape:version="0.92.4 (unknown)"
   xml:space="preserve"
   width="350"
   height="200"
   viewBox="0 0 350.00001 200"
   sodipodi:docname="titans.svg"
   inkscape:export-filename="/home/ricco/Projects/SPy/2019.pycon.sk/static/images/partners/titans.png"
   inkscape:export-xdpi="96"
   inkscape:export-ydpi="96"><metadata
     id="metadata3398"><rdf:RDF><cc:Work
         rdf:about=""><dc:format>image/svg+xml</dc:format><dc:type
           rdf:resource="http://purl.org/dc/dcmitype/StillImage" /><dc:title></dc:title></cc:Work></rdf:RDF></metadata><defs
     id="defs3396"><clipPath
       clipPathUnits="userSpaceOnUse"
       id="clipPath3406"><path
         d="M 0,595.28 H 419.53 V 0 H 0 Z"
         id="path3408"
         inkscape:connector-curvature="0" /></clipPath></defs><sodipodi:namedview
     pagecolor="#ffffff"
     bordercolor="#666666"
     borderopacity="1"
     objecttolerance="10"
     gridtolerance="10"
     guidetolerance="10"
     inkscape:pageopacity="0"
     inkscape:pageshadow="2"
     inkscape:window-width="1920"
     inkscape:window-height="1016"
     id="namedview3394"
     showgrid="false"
     inkscape:zoom="0.5"
     inkscape:cx="-101.79376"
     inkscape:cy="364.04999"
     inkscape:window-x="0"
     inkscape:window-y="27"
     inkscape:window-maximized="1"
     inkscape:current-layer="g3400" /><g
     id="g3400"
     inkscape:groupmode="layer"
     inkscape:label="titans-logo"
     transform="matrix(1.25,0,0,-1.25,0,200)"><g
       id="g3402"
       transform="matrix(0.72870002,0,0,0.72870002,-12.527371,-152.70798)"><g
         id="g3404"
         clip-path="url(#clipPath3406)"><g
           id="g3410"
           transform="translate(346.2744,280.1553)" /><g
           id="g3414"
           transform="translate(73.4023,209.5693)" /><g
           id="g3418"
           transform="translate(100.9258,224.4785)" /><g
           id="g3422"
           transform="translate(135.8159,219.1562)" /><g
           id="g3426"
           transform="translate(167.3647,219.1562)" /><g
           id="g3432"
           transform="translate(211.3525,217.4932)" /><g
           id="g3436"
           transform="translate(251.8525,209.5693)" /><g
           id="g3440"
           transform="translate(285.4443,211.9209)" /><g
           id="g3444"
           transform="translate(312.8506,219.1562)" /><g
           id="g3448"
           transform="translate(336.5703,224.4785)" /><g
           id="g3452"
           transform="translate(369.0186,221.0283)" /><g
           id="g3456"
           transform="translate(164.0723,362.1816)" /><g
           id="g3460"
           transform="translate(109.835,357.1406)" /><g
           id="g3464"
           transform="translate(113.4814,373.1196)" /><g
           id="g3468"
           transform="translate(46.8643,309.7217)" /><g
           id="g3474"
           transform="translate(127.9448,309.8721)" /><g
           id="g3478"
           transform="translate(230.9434,264.9492)" /><g
           id="g3482"
           transform="translate(301.2148,257.8965)"><g
             id="g3533"><path
               inkscape:connector-curvature="0"
               id="path3412"
               style="fill:#2f3443;fill-opacity:1;fill-rule:nonzero;stroke:none"
               d="m 0,0 -0.7,0.137 c -11.164,2.079 -18.492,3.948 -18.492,10.776 0,11.344 16.219,11.672 18.06,11.672 6.942,-0.086 13.957,-1.126 18.277,-8.066 l 0.667,-1.085 6.314,3.733 -0.774,1.134 c -6.369,9.51 -14.385,11.453 -24.467,11.453 -8.799,0 -16.68,-2.695 -21.094,-7.19 -3.098,-3.161 -4.613,-7.142 -4.518,-11.832 0,-12.896 13.131,-15.47 24.721,-17.736 12.108,-2.31 20.038,-4.429 19.958,-12.415 0,-11.026 -13.343,-12.223 -19.067,-12.223 -7.543,0 -17.063,3.745 -20.679,10.894 l -0.586,1.151 -6.718,-3.354 0.594,-1.174 c 5.436,-10.759 17.71,-14.599 27.389,-14.599 6.207,0 26.5,1.382 26.605,19.213 C 25.49,-4.898 11.951,-2.298 0,0"
               transform="translate(45.0596,22.258796)" /><path
               inkscape:connector-curvature="0"
               id="path3416"
               style="fill:#75cef4;fill-opacity:1;fill-rule:nonzero;stroke:none"
               d="m 0,0 v 11.459 h -2.79 v 3.242 H 0 v 0.994 c 0,3.993 2.688,5.841 5.69,5.841 1.296,0 2.658,-0.422 3.871,-1.209 L 8.197,17.569 c -0.785,0.518 -1.514,0.789 -2.272,0.789 -1.271,0 -2.235,-0.84 -2.235,-2.663 V 14.701 H 8.081 V 11.459 H 3.69 V 0 Z"
               transform="translate(-227.8125,-48.327196)" /><path
               inkscape:connector-curvature="0"
               id="path3420"
               style="fill:#75cef4;fill-opacity:1;fill-rule:nonzero;stroke:none"
               d="m 0,0 0.275,-1.723 c 1.15,1.847 2.695,2.116 4.206,2.116 1.543,0 3.025,-0.605 3.842,-1.417 L 6.654,-4.231 c -0.749,0.63 -1.448,0.964 -2.663,0.964 -1.928,0 -3.716,-1.027 -3.716,-3.779 v -7.87 H -3.418 V 0 Z"
               transform="translate(-200.289,-33.418004)" /><path
               inkscape:connector-curvature="0"
               id="path3424"
               style="fill:#75cef4;fill-opacity:1;fill-rule:nonzero;stroke:none"
               d="M 0,0 C -0.25,1.93 -1.762,2.9 -3.877,2.9 -5.871,2.9 -7.506,1.93 -8.054,0 Z m -8.111,-3.055 c 0.234,-1.852 1.84,-3.179 4.445,-3.179 1.361,0 3.14,0.513 3.99,1.391 l 2.364,-2.33 c -1.577,-1.636 -4.146,-2.421 -6.416,-2.421 -5.146,0 -8.201,3.178 -8.201,7.959 0,4.535 3.086,7.808 7.928,7.808 4.995,0 8.11,-3.092 7.535,-9.228 z"
               transform="translate(-165.3989,-38.7403)" /><path
               inkscape:connector-curvature="0"
               id="path3428"
               style="fill:#75cef4;fill-opacity:1;fill-rule:nonzero;stroke:none"
               d="m 0,0 c -0.252,1.93 -1.761,2.9 -3.872,2.9 -2,0 -3.639,-0.97 -4.177,-2.9 z m -8.11,-3.055 c 0.246,-1.852 1.843,-3.179 4.451,-3.179 1.356,0 3.136,0.513 3.989,1.391 l 2.362,-2.33 c -1.574,-1.636 -4.147,-2.421 -6.419,-2.421 -5.138,0 -8.199,3.178 -8.199,7.959 0,4.535 3.089,7.808 7.928,7.808 4.999,0 8.112,-3.092 7.54,-9.228 z"
               transform="translate(-133.8501,-38.7403)" /><path
               inkscape:connector-curvature="0"
               id="path3430"
               style="fill:#75cef4;fill-opacity:1;fill-rule:nonzero;stroke:none"
               d="m 191.326,209.569 h -3.666 v 21.149 h 3.666 z"
               transform="translate(-301.2148,-257.8965)" /><path
               inkscape:connector-curvature="0"
               id="path3434"
               style="fill:#75cef4;fill-opacity:1;fill-rule:nonzero;stroke:none"
               d="m 0,0 c 0,-2.844 1.967,-4.547 4.41,-4.547 5.807,0 5.807,9.055 0,9.055 C 1.967,4.508 0,2.839 0,0 m 8.952,7.441 h 3.54 V -7.472 H 9.012 L 8.833,-5.299 C 7.979,-7.047 5.655,-7.897 3.99,-7.924 -0.43,-7.964 -3.695,-5.236 -3.695,0 c 0,5.133 3.411,7.836 7.776,7.808 1.993,0 3.898,-0.949 4.752,-2.422 z"
               transform="translate(-89.862304,-40.4033)" /><path
               inkscape:connector-curvature="0"
               id="path3438"
               style="fill:#75cef4;fill-opacity:1;fill-rule:nonzero;stroke:none"
               d="m 0,0 v 7.798 c 0,2.272 -1.239,3.997 -3.589,3.997 -2.269,0 -3.828,-1.903 -3.828,-4.179 V 0 h -3.646 v 14.941 h 3.292 l 0.24,-2.029 c 1.515,1.484 3.023,2.237 4.905,2.237 3.508,0 6.322,-2.622 6.322,-7.316 L 3.696,0 Z"
               transform="translate(-49.362304,-48.327196)" /><path
               inkscape:connector-curvature="0"
               id="path3442"
               style="fill:#75cef4;fill-opacity:1;fill-rule:nonzero;stroke:none"
               d="m 0,0 c -1.728,-1.692 -3.535,-2.352 -5.753,-2.352 -4.328,0 -7.925,2.596 -7.925,7.895 0,5.292 3.597,7.89 7.925,7.89 2.118,0 3.757,-0.6 5.383,-2.21 L -2.699,8.778 C -3.576,9.56 -4.662,9.96 -5.691,9.96 c -2.478,0 -4.295,-1.818 -4.295,-4.417 0,-2.853 1.934,-4.36 4.233,-4.36 1.177,0 2.362,0.332 3.27,1.244 z"
               transform="translate(-15.770496,-45.975604)" /><path
               inkscape:connector-curvature="0"
               id="path3446"
               style="fill:#75cef4;fill-opacity:1;fill-rule:nonzero;stroke:none"
               d="M 0,0 C -0.24,1.93 -1.758,2.9 -3.863,2.9 -5.864,2.9 -7.503,1.93 -8.044,0 Z m -8.108,-3.055 c 0.245,-1.852 1.85,-3.179 4.455,-3.179 1.352,0 3.136,0.513 3.988,1.391 l 2.356,-2.33 c -1.574,-1.636 -4.138,-2.421 -6.413,-2.421 -5.141,0 -8.197,3.178 -8.197,7.959 0,4.535 3.087,7.808 7.926,7.808 4.99,0 8.11,-3.092 7.53,-9.228 z"
               transform="translate(11.6358,-38.7403)" /><path
               inkscape:connector-curvature="0"
               id="path3450"
               style="fill:#75cef4;fill-opacity:1;fill-rule:nonzero;stroke:none"
               d="m 0,0 0.273,-1.723 c 1.145,1.847 2.693,2.116 4.206,2.116 1.546,0 3.026,-0.605 3.843,-1.417 L 6.658,-4.231 c -0.759,0.63 -1.449,0.964 -2.66,0.964 -1.941,0 -3.725,-1.027 -3.725,-3.779 v -7.87 H -3.415 V 0 Z"
               transform="translate(35.355496,-33.418004)" /><path
               inkscape:connector-curvature="0"
               id="path3454"
               style="fill:#75cef4;fill-opacity:1;fill-rule:nonzero;stroke:none"
               d="m 0,0 c -1.065,1 -2.275,1.337 -3.694,1.337 -1.758,0 -2.73,-0.547 -2.73,-1.487 0,-0.968 0.879,-1.512 2.789,-1.64 2.82,-0.179 6.374,-0.808 6.374,-4.771 0,-2.635 -2.137,-4.898 -6.406,-4.898 -2.364,0 -4.719,0.388 -6.903,2.661 l 1.821,2.629 c 1.061,-1.181 3.48,-2.065 5.144,-2.088 1.391,-0.027 2.693,0.696 2.693,1.786 0,1.028 -0.85,1.449 -2.965,1.573 -2.81,0.206 -6.173,1.237 -6.173,4.627 0,3.449 3.572,4.657 6.294,4.657 2.327,0 4.078,-0.455 5.803,-1.96 z"
               transform="translate(67.8038,-36.868204)" /><path
               inkscape:connector-curvature="0"
               id="path3458"
               style="fill:#75cef4;fill-opacity:1;fill-rule:nonzero;stroke:none"
               d="m 0,0 c 4.75,0.394 8.75,-1.453 11.033,-3.353 1.867,-1.546 4.102,-3.308 6.492,-16.516 3.336,-0.288 8.767,-2.951 8.767,-2.951 C 14.924,-2.286 15.013,21.52 15.013,21.52 h -4.002 c 0,0 -2.558,-3.133 -5.079,-3.558 0.07,0.21 0.227,1.125 0.404,2.077 -0.703,3.941 -55.531,20.915 -40.181,-37.654 -1.114,-3.457 -6.684,-6.367 -11.673,-7.925 14.974,-7.498 24.475,1.785 24.475,1.785 0,0 -1.39,14.339 -0.73,14.733 8.056,-38.657 39.899,-33.843 39.899,-33.843 l -7.029,31.233 C 11.097,-11.632 0.784,-8.915 0,0"
               transform="translate(-137.1425,104.2851)" /><path
               inkscape:connector-curvature="0"
               id="path3462"
               style="fill:#75cef4;fill-opacity:1;fill-rule:nonzero;stroke:none"
               d="M 0,0 C -1.185,5.213 -1.945,10.763 -1.133,16.634 3.875,52.958 43.92,53.376 67.632,44.113 l 0.513,0.854 12.385,20.551 C 5.463,88.835 -18.172,43.022 -18.172,24.942 c 0,-19.171 12.682,-33.486 15.199,-44.049 0.089,-0.359 0.185,-0.717 0.243,-1.075 0.143,-0.781 0.229,-1.544 0.229,-2.301 0,-9.666 -7.227,-13.124 -7.227,-13.124 h 3.659 c 0,0 8.631,3.56 10.138,12.027 0.04,0.229 0.095,0.44 0.124,0.679 0.246,1.915 0.151,3.919 -0.132,6.005 C 3.347,-11.75 1.392,-6.098 0,0"
               transform="translate(-191.3798,99.2441)" /><path
               inkscape:connector-curvature="0"
               id="path3466"
               style="fill:#75cef4;fill-opacity:1;fill-rule:nonzero;stroke:none"
               d="m 0,0 c -0.291,-2.124 -0.346,-4.216 -0.228,-6.275 h 9.65 c 0.539,6.336 2.368,11.613 5.548,15.737 4.945,6.401 12.816,9.786 22.781,9.786 2.103,0 5.75,-0.315 9.564,-1.052 l 4.912,8.444 C 47.2,27.769 42.003,28.369 36.971,28.369 24.626,28.369 3.406,24.687 0,0"
               transform="translate(-187.7334,115.2231)" /><path
               inkscape:connector-curvature="0"
               id="path3470"
               style="fill:#2f3443;fill-opacity:1;fill-rule:nonzero;stroke:none"
               d="m 0,0 v -7.187 h 23.742 v -61.106 h 7.74 V -7.187 H 55.229 V 0 Z"
               transform="translate(-254.3505,51.825204)" /><path
               inkscape:connector-curvature="0"
               id="path3472"
               style="fill:#75cef4;fill-opacity:1;fill-rule:nonzero;stroke:none"
               d="m 110.729,241.483 h 10.161 v 68.51 h -10.161 z"
               transform="translate(-301.2148,-257.8965)" /><path
               inkscape:connector-curvature="0"
               id="path3476"
               style="fill:#75cef4;fill-opacity:1;fill-rule:nonzero;stroke:none"
               d="M 0,0 V -9.633 H 22.828 V -68.389 H 33 V -9.633 H 55.831 V 0 Z"
               transform="translate(-173.27,51.975596)" /><path
               inkscape:connector-curvature="0"
               id="path3480"
               style="fill:#2f3443;fill-opacity:1;fill-rule:nonzero;stroke:none"
               d="m 0,0 h -31.182 l 15.59,35.325 z m -19.17,44.862 -30.679,-68.383 h 8.389 l 7.123,16.145 H 3.158 l 7.225,-16.145 h 8.385 l -30.67,68.383 z"
               transform="translate(-70.2714,7.0527)" /><path
               inkscape:connector-curvature="0"
               id="path3484"
               style="fill:#2f3443;fill-opacity:1;fill-rule:nonzero;stroke:none"
               d="m 0,0 -42.236,51.913 h -4.13 v -68.381 h 7.745 V 35.365 L 3.707,-16.468 H 7.649 V 51.913 H 0 Z" /></g></g></g></g></g></svg>