<?xml version="1.0" encoding="UTF-8" standalone="no"?>
<!-- Creator: CorelDRAW X6 -->

<svg
   xmlns:dc="http://purl.org/dc/elements/1.1/"
   xmlns:cc="http://creativecommons.org/ns#"
   xmlns:rdf="http://www.w3.org/1999/02/22-rdf-syntax-ns#"
   xmlns:svg="http://www.w3.org/2000/svg"
   xmlns="http://www.w3.org/2000/svg"
   xmlns:sodipodi="http://sodipodi.sourceforge.net/DTD/sodipodi-0.dtd"
   xmlns:inkscape="http://www.inkscape.org/namespaces/inkscape"
   xml:space="preserve"
   width="984.84363"
   height="404.22339"
   version="1.1"
   style="clip-rule:evenodd;fill-rule:evenodd;image-rendering:optimizeQuality;shape-rendering:geometricPrecision;text-rendering:geometricPrecision"
   viewBox="0 0 14161.728 5813.9999"
   id="svg2"
   inkscape:version="0.92.1 r15371"
   sodipodi:docname="CDRoundelWithLongText-LtBg.svg"
   inkscape:export-filename="C:\Users\eronisko\Dropbox\Side Projects\CoderDojo\CDRoundelWithLongText-LtBg.png"
   inkscape:export-xdpi="90"
   inkscape:export-ydpi="90"><metadata
     id="metadata23"><rdf:RDF><cc:Work
         rdf:about=""><dc:format>image/svg+xml</dc:format><dc:type
           rdf:resource="http://purl.org/dc/dcmitype/StillImage" /><dc:title></dc:title></cc:Work></rdf:RDF></metadata><sodipodi:namedview
     pagecolor="#ffffff"
     bordercolor="#666666"
     borderopacity="1"
     objecttolerance="10"
     gridtolerance="10"
     guidetolerance="10"
     inkscape:pageopacity="0"
     inkscape:pageshadow="2"
     inkscape:window-width="1920"
     inkscape:window-height="1001"
     id="namedview21"
     showgrid="false"
     inkscape:zoom="0.43036968"
     inkscape:cx="580.0074"
     inkscape:cy="138.87273"
     inkscape:window-x="-9"
     inkscape:window-y="-9"
     inkscape:window-maximized="1"
     inkscape:current-layer="Layer_x0020_1"
     inkscape:snap-bbox="true"
     inkscape:snap-bbox-edge-midpoints="true"
     inkscape:bbox-paths="true"
     fit-margin-top="0"
     fit-margin-left="0"
     fit-margin-right="0"
     fit-margin-bottom="0" /><defs
     id="defs4"><style
       type="text/css"
       id="style6">
   
    .fil1 {fill:#FEFEFE}
    .fil0 {fill:black}
    .fil2 {fill:white}
   
  </style></defs><g
     id="Layer_x0020_1"
     transform="translate(-1923.7003)"><metadata
       id="CorelCorpID_0Corel-Layer" /><path
       class="fil0"
       d="m 9458.3913,1929.9865 v 277.986 c -2.3101,82.3946 -19.2511,156.3188 -49.2828,220.2325 -24.6415,54.673 -63.1435,107.0361 -118.5867,148.6184 -54.6731,43.8925 -129.3675,68.534 -227.933,68.534 -99.3357,0 -176.3401,-24.6415 -231.0133,-68.534 -54.673,-41.5823 -90.865,-93.1754 -115.5065,-148.6184 -30.0317,-63.1437 -46.9727,-137.0679 -49.2828,-220.2325 V 1017.4846 c 3.0801,-80.08441 19.2511,-154.00865 49.2828,-217.15219 24.6415,-54.67314 60.0635,-110.11633 115.5065,-150.92852 54.6732,-41.58247 131.6776,-68.53393 231.0133,-68.53393 99.3356,0 173.2599,27.7216 227.933,68.53393 54.673,41.58232 93.1754,96.25538 118.5867,150.92852 30.0317,63.14354 46.9727,137.06778 49.2828,217.15219 v 277.9857 h -277.9858 v -277.9857 c 0,-54.67314 -13.8608,-93.17511 -43.8926,-126.28708 -13.8607,-13.86087 -38.5022,-22.33117 -68.5337,-22.33117 -52.3631,0 -77.0045,38.50217 -90.8653,73.92401 -8.4705,22.3313 -10.7807,46.97267 -13.8608,74.69424 v 1190.4879 c 3.0801,57.7531 19.2511,96.2553 46.9727,126.2871 13.8608,13.8608 33.1119,22.3312 57.7534,22.3312 63.1435,0 87.7848,-33.1118 101.6457,-73.9242 8.4705,-19.2511 10.7806,-43.8924 10.7806,-73.9243 v -277.9858 h 277.9858 z m 865.5307,327.2686 c -8.47,145.5384 -52.363,247.1842 -148.619,327.2687 -49.284,41.5825 -118.588,60.0634 -208.6828,60.0634 -178.6501,0 -266.4351,-99.3356 -311.0976,-197.9011 -24.6414,-57.7535 -41.5824,-123.9771 -43.8925,-197.9014 v -756.1832 c 8.4704,-145.5383 52.3629,-252.5744 148.6186,-334.9691 46.9725,-41.5824 115.5065,-60.8334 206.3715,-60.8334 178.6498,0 269.5158,99.3356 313.4098,195.5912 24.641,57.7533 41.582,120.8968 43.892,192.5109 z m -261.046,-764.6536 c 3.08,-57.7532 -8.471,-98.5656 -35.422,-131.6775 -13.861,-13.8608 -35.4223,-22.3313 -60.0638,-22.3313 -52.363,0 -74.694,35.4221 -85.475,77.0045 -8.47,22.3312 -10.78,46.9727 -8.47,77.0043 v 756.1832 c -2.31,57.7533 10.78,99.3357 35.422,129.3673 13.861,13.8609 33.112,22.3314 57.753,22.3314 52.3628,0 77.0048,-33.112 87.7848,-73.9242 8.471,-22.3314 10.781,-46.9728 8.471,-77.0044 v -756.1832 z m 1155.838,1130.4245 h -277.985 v -99.3356 c -46.973,43.8924 -87.786,77.0044 -140.149,101.6457 -27.721,13.8609 -55.443,19.2511 -80.084,19.2511 -77.005,0 -129.368,-43.8924 -162.479,-101.6457 -35.423,-54.6731 -52.363,-129.3675 -52.363,-192.5109 v -959.4749 c 0,-63.1436 16.171,-137.0679 52.363,-194.8211 33.111,-54.6732 85.474,-99.3356 162.479,-99.3356 52.363,0 107.037,30.0317 148.618,60.8334 24.642,19.2511 46.974,38.5022 71.615,60.0635 V 601.66105 h 277.985 V 2622.256 Z m -277.985,-1174.3168 c 0,-43.8927 -41.584,-90.8654 -82.395,-90.8654 -41.583,0 -73.925,38.5023 -73.925,90.8654 v 843.968 c 0,52.363 33.112,90.8652 73.925,90.8652 41.583,0 82.395,-38.5022 82.395,-90.8652 z m 1195.877,635.2861 v 173.2598 c -8.469,145.5384 -52.362,247.1842 -150.928,327.2687 -49.283,41.5825 -118.586,60.0634 -208.682,60.0634 -178.649,0 -269.515,-99.3356 -313.408,-197.9011 -24.64,-57.7535 -41.581,-123.9771 -43.892,-197.9014 v -756.1832 c 8.47,-145.5383 54.674,-252.5744 154.009,-334.9691 46.972,-41.5824 115.506,-60.8334 206.371,-60.8334 178.651,0 269.516,99.3356 313.408,195.5912 24.642,57.7533 41.583,120.8968 43.894,192.5109 v 437.385 h -458.947 v 327.2687 c 3.08,57.7532 19.251,99.3356 43.893,129.3673 13.86,13.8608 33.112,22.3313 57.752,22.3313 52.363,0 77.005,-33.1119 87.786,-73.9242 8.471,-22.3312 10.78,-46.9727 10.78,-77.0044 v -164.7893 h 258.736 z m -458.945,-379.6316 h 200.981 v -211.7622 c 0,-57.7532 -10.78,-98.5656 -38.501,-131.6775 -13.862,-13.8608 -35.423,-22.3313 -60.065,-22.3313 -52.363,0 -74.694,35.4221 -87.785,77.0045 -8.469,22.3312 -10.78,46.9727 -13.86,77.0043 v 211.7622 z m 1199.728,-299.5472 c -24.641,-8.4704 -52.363,-10.7806 -77.004,-10.7806 -43.893,0 -96.256,5.3904 -140.148,46.9728 -52.363,43.8924 -60.834,90.8651 -60.834,137.0677 V 2623.026 h -277.985 V 1119.1302 h 277.985 v 167.8696 c 3.081,-19.2511 22.332,-66.2238 66.224,-110.1163 43.893,-41.5823 110.116,-80.0845 211.762,-80.0845 z m 120.897,1218.2095 V 602.43119 h 234.094 c 274.905,0 423.524,54.67306 502.838,208.68182 77.004,154.00865 87.785,407.35289 87.785,803.15549 0,395.8025 -10.781,646.0668 -87.785,800.0756 -79.314,154.0088 -227.933,208.6819 -502.838,208.6819 z m 297.237,-297.2369 c 101.645,0 159.399,-10.7806 189.431,-110.1163 13.86,-46.9727 24.642,-118.5867 27.722,-214.0723 3.08,-96.2555 3.08,-225.6227 3.08,-390.4121 0,-164.7895 0,-294.1569 -3.08,-390.4124 -2.311,-93.1753 -13.862,-164.7893 -27.722,-214.0721 -30.032,-96.25528 -87.786,-107.03588 -189.431,-107.03588 V 2326.5592 Z m 1410.72,-68.534 c -8.469,145.5384 -52.363,247.1842 -148.618,327.2687 -49.282,41.5825 -118.587,60.0634 -208.682,60.0634 -178.65,0 -266.435,-99.3356 -311.097,-197.9011 -24.642,-57.7535 -41.583,-123.9771 -43.893,-197.9014 v -756.1832 c 8.471,-145.5383 52.363,-252.5744 148.619,-334.9691 46.972,-41.5824 115.506,-60.8334 206.371,-60.8334 178.651,0 269.515,99.3356 313.408,195.5912 24.641,57.7533 41.582,120.8968 43.892,192.5109 z m -261.045,-764.6536 c 3.08,-57.7532 -8.469,-98.5656 -35.422,-131.6775 -13.86,-13.8608 -35.421,-22.3313 -60.063,-22.3313 -52.363,0 -74.694,35.4221 -85.475,77.0045 -8.471,22.3312 -10.78,46.9727 -8.471,77.0043 v 756.1832 c -2.309,57.7533 10.782,99.3357 35.423,129.3673 13.86,13.8609 33.111,22.3314 57.753,22.3314 52.363,0 77.004,-33.112 87.786,-73.9242 8.469,-22.3314 10.78,-46.9728 8.469,-77.0044 v -756.1832 z m 445.856,-890.94045 h 277.986 v 277.9859 h -277.986 z m 277.986,516.69915 v 1542.398 c 0,77.0043 0,197.9013 -38.502,297.2369 -38.503,101.6458 -123.978,181.7303 -280.297,181.7303 -43.892,0 -73.923,-3.0801 -93.174,-8.4703 -10.78,-3.0803 -19.252,-5.3904 -27.723,-8.4705 V 2867.13 c 8.471,2.3101 16.171,2.3101 24.642,5.3902 19.252,3.0801 35.423,5.3904 52.363,5.3904 46.973,0 68.534,-38.5022 79.315,-85.4749 3.08,-22.3312 5.39,-46.9727 5.39,-71.614 0,-24.6415 0,-46.9728 0,-63.1436 V 1118.3602 Z m 906.341,1138.1249 c -8.47,145.5383 -52.363,247.1842 -148.618,327.2687 -49.282,41.5823 -118.586,60.0634 -208.682,60.0634 -178.65,0 -266.436,-99.3356 -311.097,-197.9013 -24.642,-57.7533 -41.583,-123.9771 -43.894,-197.9012 v -756.1832 c 8.472,-145.5383 52.363,-252.5744 148.62,-334.9691 46.972,-41.5824 115.506,-60.8335 206.371,-60.8335 178.651,0 269.516,99.3356 313.408,195.5911 24.642,57.7533 41.583,120.8969 43.892,192.5112 z m -261.044,-764.6536 c 3.081,-57.7533 -8.471,-98.5656 -35.422,-131.6775 -13.862,-13.8608 -35.422,-22.3313 -60.064,-22.3313 -52.363,0 -74.695,35.422 -85.475,77.0045 -8.469,22.3313 -10.78,46.9726 -8.469,77.0043 v 756.1832 c -2.311,57.7533 10.78,99.3356 35.42,129.3673 13.862,13.8609 33.114,22.3314 57.754,22.3314 52.363,0 77.005,-33.112 87.785,-73.9243 8.471,-22.3314 10.781,-46.9727 8.471,-77.0044 v -756.1832 z"
       id="path10"
       inkscape:connector-curvature="0"
       style="fill:#000000;stroke-width:0.77004391" /><g
       id="_836803312"><circle
         class="fil1"
         cx="4818"
         cy="2907"
         r="2850"
         id="circle13"
         style="fill:#fefefe" /><path
         class="fil0"
         d="M 4830,0 C 6435,0 7737,1301 7737,2907 7737,4512 6436,5814 4830,5814 3225,5814 1923,4513 1923,2907 1923,1302 3224,0 4830,0 Z m -29,150 c -14,0 -27,0 -41,1 -1503,22 -2716,1248 -2716,2756 0,1510 1216,2737 2721,2756 -744,-19 -1343,-629 -1343,-1378 0,-761 618,-1378 1378,-1378 761,0 1378,-618 1378,-1378 C 6178,768 5560,151 4800,151 Z"
         id="path15"
         inkscape:connector-curvature="0"
         style="fill:#000000" /><path
         class="fil0"
         d="M 4366,1800 V 773 c 0,-45 16,-84 49,-116 33,-33 72,-49 117,-49 h 536 c 44,0 83,16 115,49 32,33 49,72 49,116 v 1027 c 0,46 -16,85 -49,117 -32,32 -71,49 -117,49 h -533 c -46,0 -86,-16 -118,-49 -32,-32 -48,-71 -48,-117 z m 695,-6 V 781 h -523 v 1013 z"
         id="path17"
         inkscape:connector-curvature="0"
         style="fill:#000000" /><path
         class="fil2"
         d="m 4561,4906 h 264 V 3893 h -260 c -24,0 -44,-8 -61,-25 -17,-17 -25,-37 -25,-61 0,-24 8,-44 25,-61 17,-17 37,-25 61,-25 h 431 v 1185 h 172 v -358 c 0,-23 8,-43 25,-60 17,-17 37,-26 61,-26 24,0 44,8 61,25 17,17 25,37 25,61 v 444 c 0,24 -8,44 -25,61 -17,17 -37,25 -61,25 h -693 c -24,0 -44,-9 -61,-26 -17,-17 -25,-38 -25,-62 0,-23 8,-43 25,-59 17,-16 37,-25 61,-25 z"
         id="path19"
         inkscape:connector-curvature="0"
         style="fill:#ffffff" /></g><g
       aria-label="Bratislava"
       style="font-style:normal;font-weight:normal;font-size:2748.51025391px;line-height:1.25;font-family:sans-serif;letter-spacing:0px;word-spacing:0px;fill:#000000;fill-opacity:1;stroke:none;stroke-width:51.5345726"
       id="text32"><path
         d="M 8687.3896,5312.5186 V 3292.3635 h 261.1085 c 175.9047,0 313.3302,32.9821 404.031,118.186 90.7008,85.2038 137.4255,217.1323 137.4255,417.7735 0,96.1979 -8.2455,167.6591 -38.4791,233.6234 -30.2336,65.9642 -76.9583,120.9344 -145.6711,184.1502 74.2098,41.2276 129.18,118.1859 173.1562,247.3659 21.9881,63.2157 32.9821,145.671 32.9821,247.3659 0,151.1681 -27.4851,285.8451 -96.1979,390.2885 -68.7127,104.4434 -186.8987,173.1561 -362.8033,181.4017 z m 296.8391,-1187.3565 c 24.7366,0 82.4553,2.7485 131.9285,-30.2336 49.4732,-32.9821 87.9524,-98.9464 87.9524,-239.1204 0,-140.174 -38.4792,-206.1382 -87.9524,-239.1204 -49.4732,-32.9821 -107.1919,-30.2336 -131.9285,-30.2336 z m 0,893.2659 c 24.7366,0 82.4553,5.497 131.9285,-30.2337 49.4732,-35.7306 87.9524,-115.4374 87.9524,-280.348 0,-164.9106 -38.4792,-244.6174 -87.9524,-280.348 -49.4732,-35.7307 -107.1919,-30.2337 -131.9285,-30.2337 z"
         style="font-style:normal;font-variant:normal;font-weight:normal;font-stretch:normal;font-size:2748.51025391px;font-family:'League Gothic';-inkscape-font-specification:'League Gothic';stroke-width:51.5345726"
         id="path34" /><path
         d="m 10241.071,4094.9285 c -24.737,-8.2455 -52.222,-10.994 -76.958,-10.994 -43.977,0 -96.198,5.497 -140.174,46.7246 -52.2221,43.9762 -60.4676,90.7009 -60.4676,137.4256 V 5312.5186 H 9685.8719 V 3809.0834 h 277.5995 v 167.6592 c 2.7485,-19.2396 21.9881,-65.9643 65.9646,-109.9404 43.976,-41.2277 109.94,-79.7068 211.635,-79.7068 z"
         style="font-style:normal;font-variant:normal;font-weight:normal;font-stretch:normal;font-size:2748.51025391px;font-family:'League Gothic';-inkscape-font-specification:'League Gothic';stroke-width:51.5345726"
         id="path36" /><path
         d="m 10761.312,4166.3898 c 0,-24.7366 0,-63.2158 -8.245,-90.7009 -10.994,-27.4851 -32.982,-46.7246 -68.713,-46.7246 -46.725,0 -65.964,35.7306 -74.21,79.7068 -2.748,21.988 -5.497,46.7246 -5.497,71.4612 0,24.7366 0,49.4732 0,71.4613 h -277.599 v -63.2157 c 0,-109.9404 41.227,-208.8868 107.192,-283.0966 65.964,-74.2098 159.413,-118.1859 266.605,-118.1859 90.701,0 173.156,35.7306 236.372,96.1978 63.216,60.4672 101.695,145.6711 101.695,244.6174 v 923.4995 c 0,134.677 8.245,195.1442 19.239,261.1085 h -272.102 c -24.737,-30.2337 -24.737,-101.6949 -24.737,-120.9345 h -19.239 c -13.743,24.7366 -38.479,60.4672 -76.959,90.7008 -38.479,30.2337 -90.7,52.2217 -145.671,52.2217 -35.73,0 -93.449,-13.7425 -137.425,-68.7127 -46.725,-52.2217 -85.204,-145.6711 -85.204,-302.3361 0,-167.6592 49.473,-288.5936 115.438,-371.0489 65.964,-82.4553 148.419,-134.677 217.132,-170.4077 68.713,-35.7306 120.934,-60.4672 131.928,-90.7008 z m 0,420.522 c -134.677,57.7188 -192.395,192.3958 -192.395,335.3183 0,19.2396 2.748,52.2217 13.742,82.4553 10.994,32.9821 30.234,57.7187 63.216,57.7187 63.216,0 115.437,-38.4791 115.437,-90.7008 z"
         style="font-style:normal;font-variant:normal;font-weight:normal;font-stretch:normal;font-size:2748.51025391px;font-family:'League Gothic';-inkscape-font-specification:'League Gothic';stroke-width:51.5345726"
         id="path38" /><path
         d="m 11540.386,3438.0346 v 371.0488 h 189.647 v 250.1145 h -189.647 v 747.5948 c 0,46.7246 0,107.1919 10.994,156.6651 10.994,49.4731 32.982,90.7008 76.958,90.7008 21.989,0 49.474,-2.7485 68.713,-5.497 10.994,-2.7485 21.988,-2.7485 32.982,-5.4971 v 272.1026 c -13.742,2.7485 -27.485,8.2455 -41.227,10.994 -27.485,5.497 -63.216,8.2455 -107.192,8.2455 -162.162,0 -239.121,-82.4553 -277.6,-186.8987 -38.479,-104.4434 -41.227,-230.8748 -41.227,-318.8272 v -769.5828 h -140.174 v -250.1145 h 140.174 v -371.0488 z"
         style="font-style:normal;font-variant:normal;font-weight:normal;font-stretch:normal;font-size:2748.51025391px;font-family:'League Gothic';-inkscape-font-specification:'League Gothic';stroke-width:51.5345726"
         id="path40" /><path
         d="m 11876.091,3292.3635 h 277.6 v 277.5996 h -277.6 z m 0,2020.1551 V 3809.0834 h 277.6 v 1503.4352 z"
         style="font-style:normal;font-variant:normal;font-weight:normal;font-stretch:normal;font-size:2748.51025391px;font-family:'League Gothic';-inkscape-font-specification:'League Gothic';stroke-width:51.5345726"
         id="path42" /><path
         d="m 12779.75,4193.8749 c 0,-35.7307 0,-79.7068 -10.994,-115.4374 -13.743,-32.9822 -35.731,-60.4673 -79.707,-60.4673 -35.731,0 -57.719,27.4851 -68.713,60.4673 -13.743,32.9821 -16.491,79.7067 -16.491,115.4374 0,46.7247 24.737,96.1978 60.467,140.174 32.982,43.9762 76.958,87.9523 120.935,129.18 57.718,57.7187 126.431,123.6829 173.156,197.8927 46.724,76.9583 82.455,162.1621 82.455,261.1085 0,96.1979 -21.988,197.8927 -76.958,274.851 -57.719,79.7068 -145.671,137.4255 -277.6,137.4255 -167.659,0 -266.605,-76.9583 -321.575,-170.4076 -54.971,-93.4493 -65.965,-208.8868 -65.965,-288.5936 h 258.36 c 0,41.2277 2.749,98.9464 21.988,142.9226 19.24,46.7246 49.474,85.2038 107.192,85.2038 79.707,0 96.198,-93.4494 96.198,-181.4017 0,-90.7008 -87.952,-181.4017 -173.156,-266.6055 -65.964,-63.2157 -129.18,-120.9344 -178.653,-195.1442 -49.473,-74.2098 -85.204,-156.6651 -85.204,-266.6055 0,-87.9523 16.491,-189.6472 68.713,-269.354 52.221,-76.9583 137.425,-134.677 269.354,-137.4255 162.162,-2.7485 252.863,57.7187 299.587,137.4255 46.725,79.7068 54.971,184.1502 54.971,269.354 z"
         style="font-style:normal;font-variant:normal;font-weight:normal;font-stretch:normal;font-size:2748.51025391px;font-family:'League Gothic';-inkscape-font-specification:'League Gothic';stroke-width:51.5345726"
         id="path44" /><path
         d="M 13207.401,5312.5186 V 3292.3635 H 13485 v 2020.1551 z"
         style="font-style:normal;font-variant:normal;font-weight:normal;font-stretch:normal;font-size:2748.51025391px;font-family:'League Gothic';-inkscape-font-specification:'League Gothic';stroke-width:51.5345726"
         id="path46" /><path
         d="m 14127.164,4166.3898 c 0,-24.7366 0,-63.2158 -8.246,-90.7009 -10.994,-27.4851 -32.982,-46.7246 -68.713,-46.7246 -46.724,0 -65.964,35.7306 -74.209,79.7068 -2.749,21.988 -5.497,46.7246 -5.497,71.4612 0,24.7366 0,49.4732 0,71.4613 h -277.6 v -63.2157 c 0,-109.9404 41.228,-208.8868 107.192,-283.0966 65.964,-74.2098 159.414,-118.1859 266.605,-118.1859 90.701,0 173.157,35.7306 236.372,96.1978 63.216,60.4672 101.695,145.6711 101.695,244.6174 v 923.4995 c 0,134.677 8.246,195.1442 19.24,261.1085 H 14151.9 c -24.736,-30.2337 -24.736,-101.6949 -24.736,-120.9345 h -19.24 c -13.742,24.7366 -38.479,60.4672 -76.958,90.7008 -38.479,30.2337 -90.701,52.2217 -145.671,52.2217 -35.731,0 -93.45,-13.7425 -137.426,-68.7127 -46.724,-52.2217 -85.204,-145.6711 -85.204,-302.3361 0,-167.6592 49.474,-288.5936 115.438,-371.0489 65.964,-82.4553 148.419,-134.677 217.132,-170.4077 68.713,-35.7306 120.935,-60.4672 131.929,-90.7008 z m 0,420.522 c -134.677,57.7188 -192.396,192.3958 -192.396,335.3183 0,19.2396 2.748,52.2217 13.742,82.4553 10.995,32.9821 30.234,57.7187 63.216,57.7187 63.216,0 115.438,-38.4791 115.438,-90.7008 z"
         style="font-style:normal;font-variant:normal;font-weight:normal;font-stretch:normal;font-size:2748.51025391px;font-family:'League Gothic';-inkscape-font-specification:'League Gothic';stroke-width:51.5345726"
         id="path48" /><path
         d="m 14738.321,5312.5186 -244.618,-1503.4352 h 269.354 l 90.701,871.2778 10.994,96.1979 h 21.988 l 10.994,-96.1979 90.701,-871.2778 h 269.354 l -244.617,1503.4352 z"
         style="font-style:normal;font-variant:normal;font-weight:normal;font-stretch:normal;font-size:2748.51025391px;font-family:'League Gothic';-inkscape-font-specification:'League Gothic';stroke-width:51.5345726"
         id="path50" /><path
         d="m 15791.301,4166.3898 c 0,-24.7366 0,-63.2158 -8.246,-90.7009 -10.994,-27.4851 -32.982,-46.7246 -68.712,-46.7246 -46.725,0 -65.965,35.7306 -74.21,79.7068 -2.749,21.988 -5.497,46.7246 -5.497,71.4612 0,24.7366 0,49.4732 0,71.4613 h -277.6 v -63.2157 c 0,-109.9404 41.228,-208.8868 107.192,-283.0966 65.964,-74.2098 159.414,-118.1859 266.606,-118.1859 90.7,0 173.156,35.7306 236.372,96.1978 63.215,60.4672 101.694,145.6711 101.694,244.6174 v 923.4995 c 0,134.677 8.246,195.1442 19.24,261.1085 h -272.103 c -24.736,-30.2337 -24.736,-101.6949 -24.736,-120.9345 h -19.24 c -13.742,24.7366 -38.479,60.4672 -76.958,90.7008 -38.479,30.2337 -90.701,52.2217 -145.671,52.2217 -35.731,0 -93.449,-13.7425 -137.426,-68.7127 -46.724,-52.2217 -85.203,-145.6711 -85.203,-302.3361 0,-167.6592 49.473,-288.5936 115.437,-371.0489 65.964,-82.4553 148.42,-134.677 217.132,-170.4077 68.713,-35.7306 120.935,-60.4672 131.929,-90.7008 z m 0,420.522 c -134.677,57.7188 -192.396,192.3958 -192.396,335.3183 0,19.2396 2.749,52.2217 13.743,82.4553 10.994,32.9821 30.233,57.7187 63.215,57.7187 63.216,0 115.438,-38.4791 115.438,-90.7008 z"
         style="font-style:normal;font-variant:normal;font-weight:normal;font-stretch:normal;font-size:2748.51025391px;font-family:'League Gothic';-inkscape-font-specification:'League Gothic';stroke-width:51.5345726"
         id="path52" /></g></g></svg>