<?xml version="1.0" encoding="UTF-8" standalone="no"?>
<!-- Created with Inkscape (http://www.inkscape.org/) -->

<svg
   xmlns:dc="http://purl.org/dc/elements/1.1/"
   xmlns:cc="http://creativecommons.org/ns#"
   xmlns:rdf="http://www.w3.org/1999/02/22-rdf-syntax-ns#"
   xmlns:svg="http://www.w3.org/2000/svg"
   xmlns="http://www.w3.org/2000/svg"
   xmlns:sodipodi="http://sodipodi.sourceforge.net/DTD/sodipodi-0.dtd"
   xmlns:inkscape="http://www.inkscape.org/namespaces/inkscape"
   version="1.1"
   id="svg3686"
   xml:space="preserve"
   width="200"
   height="99.099998"
   viewBox="0 0 200 99.100001"
   sodipodi:docname="Kistler_logo.svg"
   inkscape:version="0.92pre3 r"><metadata
     id="metadata3692"><rdf:RDF><cc:Work
         rdf:about=""><dc:format>image/svg+xml</dc:format><dc:type
           rdf:resource="http://purl.org/dc/dcmitype/StillImage" /><dc:title /></cc:Work></rdf:RDF></metadata><defs
     id="defs3690" /><sodipodi:namedview
     pagecolor="#ffffff"
     bordercolor="#666666"
     borderopacity="1"
     objecttolerance="10"
     gridtolerance="10"
     guidetolerance="10"
     inkscape:pageopacity="0"
     inkscape:pageshadow="2"
     inkscape:window-width="1920"
     inkscape:window-height="983"
     id="namedview3688"
     showgrid="false"
     inkscape:zoom="4.8451577"
     inkscape:cx="100.55436"
     inkscape:cy="34.696845"
     inkscape:window-x="0"
     inkscape:window-y="27"
     inkscape:window-maximized="1"
     inkscape:current-layer="g3694" /><g
     id="g3694"
     inkscape:groupmode="layer"
     inkscape:label="ink_ext_XXXXXX"
     transform="matrix(1.3333333,0,0,-1.3333333,0,99.100003)"><g
       id="g3696"
       transform="matrix(0.10728801,0,0,0.10728801,-17.31779,-7.9301104)"><path
         d="m 470.895,646.125 h 36.804 V 418.516 h -36.804 v 227.609"
         style="fill:#1478c7;fill-opacity:1;fill-rule:nonzero;stroke:none"
         id="path3698"
         inkscape:connector-curvature="0" /><path
         d="m 691.754,574.758 c 0,13.558 -3.043,29.285 -21.805,39.808 -15.777,9.036 -27.039,8.286 -40.554,8.286 -54.844,0 -63.844,-44.329 -36.071,-59.368 8.281,-5.226 19.528,-7.492 35.293,-11.242 21.051,-3.769 40.571,-8.285 60.852,-13.535 26.301,-6.738 48.851,-29.293 49.57,-54.078 1.512,-49.563 -36.769,-73.582 -101.398,-73.582 -22.52,0 -58.578,5.23 -80.375,29.266 -16.508,18.015 -22.52,36.824 -22.52,55.601 h 36.07 c 0,-15.031 8.247,-45.074 45.821,-54.098 7.488,-2.25 18.761,-3.011 30.781,-2.25 12.773,0.747 29.305,3.735 38.309,9.758 16.543,11.27 28.527,38.305 -1.516,57.102 -14.262,9.019 -37.535,11.988 -54.816,15.777 -32.305,7.492 -35.313,8.25 -48.821,11.985 -10.519,3.796 -34.562,13.562 -37.582,42.843 -3.73,36.059 27.824,72.836 86.403,72.836 20.273,0 44.304,-3.742 58.585,-11.98 33.055,-18.789 37.555,-47.356 37.555,-63.129 h -33.781"
         style="fill:#1478c7;fill-opacity:1;fill-rule:nonzero;stroke:none"
         id="path3700"
         inkscape:connector-curvature="0" /><path
         d="M 804.434,616.078 H 724.02 v 30.047 H 918.586 V 616.078 H 839.727 V 418.516 h -35.293 v 197.562"
         style="fill:#1478c7;fill-opacity:1;fill-rule:nonzero;stroke:none"
         id="path3702"
         inkscape:connector-curvature="0" /><path
         d="M 972.656,646.125 V 449.324 H 1098.12 V 418.516 H 936.621 v 227.609 h 36.035"
         style="fill:#1478c7;fill-opacity:1;fill-rule:nonzero;stroke:none"
         id="path3704"
         inkscape:connector-curvature="0" /><path
         d="m 1116.91,646.125 h 182.53 v -30.047 h -146.47 v -64.59 h 136.7 v -30.043 h -136.7 v -72.121 h 147.21 v -30.808 h -183.27 v 227.609"
         style="fill:#1478c7;fill-opacity:1;fill-rule:nonzero;stroke:none"
         id="path3706"
         inkscape:connector-curvature="0" /><path
         d="m 1446.66,543.191 h -78.11 v 72.887 h 77.36 c 19.54,0 51.06,1.524 48.07,-39.047 -0.76,-27.054 -27.04,-33.84 -47.32,-33.84 z m 72.86,-70.609 c 0,45.832 -27.04,54.129 -33.8,54.129 13.51,0 49.58,23.266 45.05,61.605 -5.22,51.055 -43.53,57.809 -82.63,57.809 h -16.51 -99.9 V 418.516 h 36.82 v 94.636 h 63.08 11.27 c 50.32,0 37.54,-47.293 43.57,-73.586 3.01,-14.269 7.51,-21.05 7.51,-21.05 h 39.81 c 0,0 -14.27,12.797 -14.27,54.066"
         style="fill:#1478c7;fill-opacity:1;fill-rule:nonzero;stroke:none"
         id="path3708"
         inkscape:connector-curvature="0" /><path
         d="m 218.5,507.184 -57.086,24.023 v 0 L 218.5,555.23 v 0 90.895 h 36.813 v -75.863 -0.754 l 187.792,78.89 V 614.566 L 255.313,535.719 v 0 -9.008 0 l 187.792,-78.895 v -34.554 l -187.792,78.894 v 0 -73.64 H 218.5 v 88.668 0"
         style="fill:#1478c7;fill-opacity:1;fill-rule:nonzero;stroke:none"
         id="path3710"
         inkscape:connector-curvature="0" /><path
         d="m 218.691,276.238 h 13.395 v -7.617 l 0.219,-0.215 c 1.898,2.813 4.34,5.09 7.324,6.836 2.988,1.738 6.273,2.629 9.851,2.629 3.543,0 6.532,-0.762 8.961,-2.316 2.457,-1.59 4.18,-4.102 5.149,-7.539 4.808,6.418 11.117,9.679 18.914,9.855 3.281,0 5.953,-0.508 8.004,-1.492 2.086,-1.098 3.656,-2.453 4.703,-4.043 1.152,-1.613 1.957,-3.363 2.402,-5.266 0.336,-1.98 0.508,-3.925 0.508,-5.82 -0.086,-14.199 -0.113,-28.457 -0.113,-42.734 h -13.5 l 0.105,22.703 c 0,7.14 0.032,12.804 0.114,17.035 -0.082,4.617 -2.469,7 -7.184,7.117 -1.035,0 -2.082,-0.242 -3.152,-0.734 -1.2,-0.438 -2.383,-1.114 -3.571,-1.961 -2.257,-1.77 -4.097,-3.449 -5.507,-5.059 l -0.454,-39.101 h -13.355 l 0.113,22.703 c 0,7.14 0.028,12.804 0.113,17.035 -0.085,4.617 -2.484,7 -7.195,7.117 -0.996,0 -2.051,-0.242 -3.152,-0.734 -1.192,-0.438 -2.379,-1.114 -3.563,-1.961 -2.261,-1.77 -4.105,-3.449 -5.515,-5.059 l -0.446,-39.101 h -13.398 l 0.23,57.722"
         style="fill:#231f20;fill-opacity:1;fill-rule:nonzero;stroke:none"
         id="path3712"
         inkscape:connector-curvature="0" /><path
         d="m 346.148,255.398 c -0.074,3.352 -0.894,6.243 -2.457,8.75 -1.628,2.473 -4.234,3.735 -7.793,3.813 -3.132,-0.078 -5.777,-1.418 -7.937,-4.043 -2.133,-2.609 -3.375,-5.441 -3.742,-8.52 z m -22.304,-9.871 c 0.066,-1.964 0.367,-3.945 0.867,-5.91 0.441,-2.039 1.172,-3.945 2.227,-5.73 1.91,-3.77 5.179,-5.715 9.773,-5.793 2.684,0 5.121,0.793 7.332,2.402 2.172,1.426 4.07,3.117 5.703,5 l 7.766,-7.281 c -6.004,-7.317 -13.582,-11.106 -22.754,-11.32 -7.223,0.078 -13.059,2.863 -17.492,8.386 -4.524,5.41 -6.813,12.688 -6.879,21.867 0,8.028 2.25,15.086 6.761,21.219 4.372,6.184 10.618,9.328 18.747,9.504 15.453,-0.312 23.136,-11.074 23.07,-32.344 h -35.121"
         style="fill:#231f20;fill-opacity:1;fill-rule:nonzero;stroke:none"
         id="path3714"
         inkscape:connector-curvature="0" /><path
         d="m 395.664,246.34 c -6.387,-1.469 -10.797,-3.078 -13.223,-4.836 -2.617,-1.945 -3.89,-4.348 -3.82,-7.227 0,-2.101 0.676,-3.761 2.02,-4.992 1.269,-1.191 2.976,-1.777 5.117,-1.777 3.051,0 6.289,1.777 9.695,5.375 z m -27.266,19.93 c 5.954,5.007 10.832,8.242 14.629,9.695 3.598,1.379 6.852,2.031 9.739,1.945 4.367,0 8.109,-1.34 11.211,-4.023 3.097,-2.766 4.683,-6.953 4.769,-12.578 0,-1.926 -0.035,-3.536 -0.117,-4.817 l -0.469,-16.64 c -0.14,-2.516 -0.211,-4.93 -0.211,-7.196 0,-1.621 0.321,-2.91 0.977,-3.926 0.582,-1.046 1.246,-1.562 2.012,-1.562 0.5,-0.078 1.851,0.422 4.019,1.465 l 3.207,-6.992 c -2.816,-1.907 -5.141,-3.145 -6.98,-3.75 -1.848,-0.633 -3.391,-0.938 -4.664,-0.938 -2.344,0.059 -4.379,0.801 -6.114,2.188 -1.773,1.297 -2.945,3.125 -3.511,5.527 -4.082,-5.07 -8.848,-7.656 -14.301,-7.715 -5.051,0.059 -9.039,1.633 -11.957,4.707 -3.219,2.91 -4.824,6.953 -4.824,12.129 0,2.469 0.488,4.758 1.46,6.902 0.907,2.082 2.418,4.043 4.547,5.86 4.16,3.722 12.145,6.621 23.965,8.683 v 3.809 c 0,3.125 -0.59,5.262 -1.742,6.328 -1.191,0.977 -2.758,1.426 -4.668,1.348 -0.699,0 -1.395,-0.078 -2.129,-0.235 -0.902,-0.214 -1.918,-0.586 -3.043,-1.113 -2.133,-1.008 -5.293,-3.203 -9.457,-6.562 l -6.348,7.461"
         style="fill:#231f20;fill-opacity:1;fill-rule:nonzero;stroke:none"
         id="path3716"
         inkscape:connector-curvature="0" /><path
         d="m 427.828,232.258 c 2.324,-1.301 4.652,-2.414 7.016,-3.34 2.359,-0.996 4.851,-1.477 7.469,-1.477 2.32,0 4.23,0.575 5.73,1.692 1.453,1.082 2.223,2.769 2.305,5.086 -0.082,2.801 -1.43,4.707 -4.075,5.691 -1.222,0.539 -2.64,1.035 -4.23,1.535 -1.605,0.43 -3.277,0.879 -5.023,1.348 -1.606,0.633 -3.207,1.316 -4.797,2.059 -1.598,0.851 -3.051,1.886 -4.356,3.07 -2.828,2.476 -4.273,6.48 -4.351,12.027 0.074,5.969 2.23,10.461 6.449,13.449 3.976,2.981 8.828,4.473 14.57,4.473 3.387,0 6.797,-0.508 10.266,-1.492 3.484,-0.996 6.504,-2.609 9.043,-4.848 l -5.918,-8.797 c -3.754,2.891 -7.992,4.442 -12.727,4.579 -2.047,0 -3.972,-0.516 -5.804,-1.571 -1.969,-1.144 -2.989,-2.91 -3.067,-5.246 0,-1.316 0.414,-2.43 1.231,-3.379 0.855,-0.898 1.933,-1.601 3.238,-2.176 1.269,-0.507 2.695,-0.996 4.297,-1.445 1.594,-0.558 3.289,-1.152 5.078,-1.75 1.754,-0.516 3.449,-1.16 5.133,-1.961 1.597,-0.734 3.047,-1.75 4.351,-3.066 1.262,-1.231 2.321,-2.766 3.188,-4.59 0.664,-1.828 1,-4.082 1,-6.777 -0.153,-6.18 -2.317,-10.762 -6.508,-13.75 -4.156,-3.145 -9.137,-4.707 -14.949,-4.707 -6.981,0.078 -13.492,1.902 -19.516,5.527 l 4.957,9.836"
         style="fill:#231f20;fill-opacity:1;fill-rule:nonzero;stroke:none"
         id="path3718"
         inkscape:connector-curvature="0" /><path
         d="m 522.141,218.516 h -13.52 v 7.011 h -0.219 c -2.132,-2.55 -4.632,-4.589 -7.519,-6.113 -3.028,-1.601 -6.274,-2.441 -9.735,-2.519 -5.98,0.078 -10.085,2 -12.281,5.773 -2.234,3.504 -3.32,8.125 -3.242,13.855 0,3.504 0.035,7.079 0.105,10.743 l 0.321,28.972 h 13.469 l -0.11,-14.48 c -0.14,-8.625 -0.215,-16.25 -0.215,-22.813 -0.074,-3.293 0.485,-5.715 1.668,-7.234 1.008,-1.535 2.883,-2.328 5.621,-2.328 2.161,0 4.336,0.851 6.536,2.539 2.117,1.613 4.046,3.293 5.773,5.058 l 0.211,39.258 h 13.574 l -0.437,-57.722"
         style="fill:#231f20;fill-opacity:1;fill-rule:nonzero;stroke:none"
         id="path3720"
         inkscape:connector-curvature="0" /><path
         d="m 538.418,276.238 h 13.457 v -10.515 l 0.117,-0.215 c 1.262,3.426 2.914,6.316 4.977,8.672 1.953,2.312 4.617,3.515 8.015,3.691 1.332,0 2.668,-0.195 4.004,-0.566 l -2.218,-13.371 c -1.122,0.312 -2.2,0.468 -3.25,0.468 -2.497,0 -4.715,-0.894 -6.661,-2.664 -1.988,-1.828 -3.679,-4.297 -5.089,-7.433 l -0.317,-35.789 h -13.598 l 0.563,57.722"
         style="fill:#231f20;fill-opacity:1;fill-rule:nonzero;stroke:none"
         id="path3722"
         inkscape:connector-curvature="0" /><path
         d="m 607.344,255.398 c -0.074,3.352 -0.895,6.243 -2.457,8.75 -1.633,2.473 -4.239,3.735 -7.793,3.813 -3.141,-0.078 -5.781,-1.418 -7.934,-4.043 -2.129,-2.609 -3.379,-5.441 -3.75,-8.52 z m -22.305,-9.871 c 0.066,-1.964 0.359,-3.945 0.863,-5.91 0.442,-2.039 1.176,-3.945 2.239,-5.73 1.91,-3.77 5.172,-5.715 9.757,-5.793 2.688,0 5.137,0.793 7.34,2.402 2.168,1.426 4.071,3.117 5.707,5 l 7.754,-7.281 c -5.988,-7.317 -13.57,-11.106 -22.754,-11.32 -7.218,0.078 -13.054,2.863 -17.488,8.386 -4.516,5.41 -6.812,12.688 -6.879,21.867 0,8.028 2.254,15.086 6.774,21.219 4.367,6.184 10.601,9.328 18.738,9.504 15.449,-0.312 23.14,-11.074 23.066,-32.344 h -35.117"
         style="fill:#231f20;fill-opacity:1;fill-rule:nonzero;stroke:none"
         id="path3724"
         inkscape:connector-curvature="0" /><path
         d="m 631.563,233.809 h 14.765 v -15.274 h -14.765 v 15.274"
         style="fill:#231f20;fill-opacity:1;fill-rule:nonzero;stroke:none"
         id="path3726"
         inkscape:connector-curvature="0" /><path
         d="m 718.18,246.34 c -6.387,-1.469 -10.809,-3.078 -13.231,-4.836 -2.621,-1.945 -3.894,-4.348 -3.812,-7.227 0,-2.101 0.664,-3.761 2.015,-4.992 1.266,-1.191 2.977,-1.777 5.118,-1.777 3.046,0 6.285,1.777 9.695,5.375 z m -27.278,19.93 c 5.957,5.007 10.832,8.242 14.621,9.695 3.614,1.379 6.856,2.031 9.747,1.945 4.378,0 8.097,-1.34 11.21,-4.023 3.11,-2.766 4.692,-6.953 4.758,-12.578 0,-1.926 -0.031,-3.536 -0.101,-4.817 l -0.461,-16.64 c -0.149,-2.516 -0.223,-4.93 -0.223,-7.196 0,-1.621 0.324,-2.91 0.985,-3.926 0.574,-1.046 1.25,-1.562 2.007,-1.562 0.504,-0.078 1.836,0.422 4.028,1.465 l 3.195,-6.992 c -2.813,-1.907 -5.137,-3.145 -6.977,-3.75 -1.843,-0.633 -3.398,-0.938 -4.66,-0.938 -2.347,0.059 -4.383,0.801 -6.121,2.188 -1.762,1.297 -2.933,3.125 -3.515,5.527 -4.079,-5.07 -8.836,-7.656 -14.293,-7.715 -5.051,0.059 -9.043,1.633 -11.961,4.707 -3.215,2.91 -4.821,6.953 -4.821,12.129 0,2.469 0.489,4.758 1.465,6.902 0.903,2.082 2.422,4.043 4.551,5.86 4.148,3.722 12.133,6.621 23.949,8.683 v 3.809 c 0,3.125 -0.574,5.262 -1.738,6.328 -1.195,0.977 -2.746,1.426 -4.668,1.348 -0.691,0 -1.399,-0.078 -2.121,-0.235 -0.906,-0.214 -1.926,-0.586 -3.043,-1.113 -2.145,-1.008 -5.293,-3.203 -9.457,-6.562 l -6.356,7.461"
         style="fill:#231f20;fill-opacity:1;fill-rule:nonzero;stroke:none"
         id="path3728"
         inkscape:connector-curvature="0" /><path
         d="m 748.871,276.238 h 13.352 v -6.98 h 0.215 c 4.496,5.586 10.496,8.437 18.015,8.613 5.746,-0.098 9.684,-1.836 11.813,-5.266 2.058,-3.464 3.047,-7.515 2.968,-12.128 -0.082,-5.379 -0.117,-9.696 -0.117,-12.989 l -0.328,-28.972 h -13.512 l 0.11,14.461 c 0.179,8.625 0.273,16.211 0.273,22.738 0,3.531 -0.488,6.043 -1.461,7.578 -1.039,1.383 -2.996,2.078 -5.863,2.078 -2.117,-0.117 -4.234,-0.906 -6.352,-2.422 -2.156,-1.601 -4.105,-3.351 -5.867,-5.215 l -0.215,-39.218 h -13.597 l 0.566,57.722"
         style="fill:#231f20;fill-opacity:1;fill-rule:nonzero;stroke:none"
         id="path3730"
         inkscape:connector-curvature="0" /><path
         d="m 836.777,246.34 c -6.39,-1.469 -10.804,-3.078 -13.23,-4.836 -2.625,-1.945 -3.895,-4.348 -3.817,-7.227 0,-2.101 0.668,-3.761 2.016,-4.992 1.266,-1.191 2.977,-1.777 5.117,-1.777 3.047,0 6.282,1.777 9.7,5.375 z m -27.281,19.93 c 5.957,5.007 10.836,8.242 14.629,9.695 3.605,1.379 6.855,2.031 9.742,1.945 4.363,0 8.106,-1.34 11.211,-4.023 3.106,-2.766 4.692,-6.953 4.766,-12.578 0,-1.926 -0.031,-3.536 -0.114,-4.817 l -0.46,-16.64 c -0.149,-2.516 -0.215,-4.93 -0.215,-7.196 0,-1.621 0.324,-2.91 0.972,-3.926 0.578,-1.046 1.25,-1.562 2.016,-1.562 0.508,-0.078 1.844,0.422 4.027,1.465 l 3.2,-6.992 c -2.809,-1.907 -5.145,-3.145 -6.985,-3.75 -1.836,-0.633 -3.398,-0.938 -4.656,-0.938 -2.348,0.059 -4.387,0.801 -6.113,2.188 -1.774,1.297 -2.942,3.125 -3.528,5.527 -4.082,-5.07 -8.84,-7.656 -14.289,-7.715 -5.054,0.059 -9.043,1.633 -11.965,4.707 -3.214,2.91 -4.82,6.953 -4.82,12.129 0,2.469 0.492,4.758 1.469,6.902 0.898,2.082 2.414,4.043 4.551,5.86 4.144,3.722 12.14,6.621 23.945,8.683 v 3.809 c 0,3.125 -0.574,5.262 -1.734,6.328 -1.2,0.977 -2.758,1.426 -4.676,1.348 -0.688,0 -1.399,-0.078 -2.114,-0.235 -0.91,-0.214 -1.925,-0.586 -3.042,-1.113 -2.137,-1.008 -5.293,-3.203 -9.458,-6.562 l -6.359,7.461"
         style="fill:#231f20;fill-opacity:1;fill-rule:nonzero;stroke:none"
         id="path3732"
         inkscape:connector-curvature="0" /><path
         d="m 868.531,304.363 h 13.477 l -0.703,-85.847 h -13.422 l 0.648,85.847"
         style="fill:#231f20;fill-opacity:1;fill-rule:nonzero;stroke:none"
         id="path3734"
         inkscape:connector-curvature="0" /><path
         d="m 892.617,201.914 h 2 c 0.578,0 1.399,0.117 2.446,0.352 0.859,0.078 1.863,0.351 2.976,0.828 1.172,0.441 2.316,1.23 3.445,2.304 1.008,0.969 1.926,2.383 2.754,4.2 l 3.989,8.84 -18.848,55.39 13.523,4.043 12.09,-42.004 h 0.235 l 14.492,42.004 12.793,-4.043 -24.09,-62.558 c -2.402,-6.653 -5.434,-11.739 -9.082,-15.223 -3.684,-3.481 -9.082,-5.246 -16.164,-5.324 h -2.559 v 11.191"
         style="fill:#231f20;fill-opacity:1;fill-rule:nonzero;stroke:none"
         id="path3736"
         inkscape:connector-curvature="0" /><path
         d="m 949.246,226.711 26.66,38.316 h -25.269 v 11.211 h 39.453 l 4.234,-8.242 -26.836,-38.269 h 25.481 v -11.211 h -39.578 l -4.145,8.195"
         style="fill:#231f20;fill-opacity:1;fill-rule:nonzero;stroke:none"
         id="path3738"
         inkscape:connector-curvature="0" /><path
         d="m 1035.82,255.398 c -0.08,3.352 -0.89,6.243 -2.46,8.75 -1.64,2.473 -4.24,3.735 -7.8,3.813 -3.14,-0.078 -5.76,-1.418 -7.93,-4.043 -2.13,-2.609 -3.38,-5.441 -3.75,-8.52 z m -22.32,-9.871 c 0.07,-1.964 0.38,-3.945 0.87,-5.91 0.44,-2.039 1.19,-3.945 2.23,-5.73 1.92,-3.77 5.17,-5.715 9.77,-5.793 2.69,0 5.13,0.793 7.33,2.402 2.18,1.426 4.06,3.117 5.71,5 l 7.77,-7.281 c -5.99,-7.317 -13.6,-11.106 -22.76,-11.32 -7.21,0.078 -13.04,2.863 -17.48,8.386 -4.55,5.41 -6.82,12.688 -6.88,21.867 0,8.028 2.23,15.086 6.77,21.219 4.37,6.184 10.59,9.328 18.73,9.504 15.44,-0.312 23.15,-11.074 23.07,-32.344 h -35.13"
         style="fill:#231f20;fill-opacity:1;fill-rule:nonzero;stroke:none"
         id="path3740"
         inkscape:connector-curvature="0" /><path
         d="m 1060.03,233.809 h 14.78 v -15.274 h -14.78 v 15.274"
         style="fill:#231f20;fill-opacity:1;fill-rule:nonzero;stroke:none"
         id="path3742"
         inkscape:connector-curvature="0" /><path
         d="m 1122.26,297.703 h 13.54 l -0.12,-13.515 h -13.52 z m -0.06,-21.445 h 13.5 l -0.59,-57.723 h -13.44 l 0.53,57.723"
         style="fill:#231f20;fill-opacity:1;fill-rule:nonzero;stroke:none"
         id="path3744"
         inkscape:connector-curvature="0" /><path
         d="m 1151.91,276.238 h 13.34 v -6.98 h 0.23 c 4.48,5.586 10.51,8.437 18.03,8.613 5.72,-0.098 9.67,-1.836 11.81,-5.266 2.04,-3.464 3.03,-7.515 2.97,-12.128 -0.08,-5.379 -0.14,-9.696 -0.14,-12.989 l -0.32,-28.972 h -13.51 l 0.11,14.461 c 0.18,8.625 0.28,16.211 0.28,22.738 0,3.531 -0.49,6.043 -1.47,7.578 -1.04,1.383 -2.99,2.078 -5.87,2.078 -2.1,-0.117 -4.24,-0.906 -6.34,-2.422 -2.16,-1.601 -4.11,-3.351 -5.87,-5.215 l -0.22,-39.218 h -13.58 l 0.55,57.722"
         style="fill:#231f20;fill-opacity:1;fill-rule:nonzero;stroke:none"
         id="path3746"
         inkscape:connector-curvature="0" /><path
         d="m 1214.42,276.238 h 13.35 v -6.98 h 0.22 c 4.5,5.586 10.51,8.437 18,8.613 5.77,-0.098 9.71,-1.836 11.81,-5.266 2.06,-3.464 3.06,-7.515 3,-12.128 -0.08,-5.379 -0.12,-9.696 -0.12,-12.989 l -0.34,-28.972 h -13.49 l 0.09,14.461 c 0.18,8.625 0.28,16.211 0.28,22.738 0,3.531 -0.47,6.043 -1.47,7.578 -1.02,1.383 -2.97,2.078 -5.87,2.078 -2.12,-0.117 -4.22,-0.906 -6.34,-2.422 -2.14,-1.601 -4.11,-3.351 -5.87,-5.215 l -0.22,-39.218 h -13.57 l 0.54,57.722"
         style="fill:#231f20;fill-opacity:1;fill-rule:nonzero;stroke:none"
         id="path3748"
         inkscape:connector-curvature="0" /><path
         d="m 1286.59,246.934 c 0,-1.766 0.26,-3.672 0.77,-5.774 0.42,-2.137 1.14,-4.18 2.11,-6.16 0.97,-1.984 2.32,-3.594 4.14,-4.824 1.73,-1.387 3.79,-2.082 6.2,-2.082 2.5,0 4.62,0.617 6.39,1.847 1.7,1.25 3.04,2.774 4.02,4.602 1.1,1.902 1.89,3.965 2.36,6.187 0.36,2.161 0.55,4.219 0.55,6.204 0,6.121 -1.04,10.937 -3.1,14.453 -2.27,3.504 -5.65,5.293 -10.22,5.293 -2.41,0 -4.47,-0.645 -6.2,-1.867 -1.82,-1.29 -3.17,-2.938 -4.14,-4.942 -1.98,-4.258 -2.96,-8.574 -2.88,-12.937 z m -13.46,0.457 c 0.05,8.007 2.5,15.05 7.3,21.074 4.67,6.125 11.14,9.23 19.38,9.406 8.96,-0.176 15.69,-3.066 20.11,-8.73 4.44,-5.715 6.65,-12.961 6.65,-21.75 -0.08,-8.328 -2.39,-15.45 -6.97,-21.317 -4.66,-5.969 -11.24,-9.023 -19.79,-9.179 -9.08,0.156 -15.76,3.21 -20.03,9.179 -4.43,5.867 -6.65,12.989 -6.65,21.317"
         style="fill:#231f20;fill-opacity:1;fill-rule:nonzero;stroke:none"
         id="path3750"
         inkscape:connector-curvature="0" /><path
         d="m 1332.69,273.867 13.53,4.004 12.12,-42.062 h 0.21 l 14.48,42.062 12.83,-4.043 -21.48,-55.312 h -12.81 l -18.88,55.351"
         style="fill:#231f20;fill-opacity:1;fill-rule:nonzero;stroke:none"
         id="path3752"
         inkscape:connector-curvature="0" /><path
         d="m 1420.91,246.34 c -6.37,-1.469 -10.76,-3.078 -13.22,-4.836 -2.61,-1.945 -3.89,-4.348 -3.79,-7.227 0,-2.101 0.65,-3.761 2.02,-4.992 1.26,-1.191 2.93,-1.777 5.11,-1.777 3.06,0 6.27,1.777 9.67,5.375 z m -27.26,19.93 c 5.95,5.007 10.82,8.242 14.63,9.695 3.59,1.379 6.87,2.031 9.73,1.945 4.38,0 8.11,-1.34 11.21,-4.023 3.12,-2.766 4.72,-6.953 4.77,-12.578 0,-1.926 -0.02,-3.536 -0.1,-4.817 l -0.45,-16.64 c -0.18,-2.516 -0.26,-4.93 -0.26,-7.196 0,-1.621 0.36,-2.91 1.01,-3.926 0.58,-1.046 1.25,-1.562 2,-1.562 0.5,-0.078 1.85,0.422 4.01,1.465 l 3.21,-6.992 c -2.79,-1.907 -5.14,-3.145 -6.96,-3.75 -1.85,-0.633 -3.4,-0.938 -4.68,-0.938 -2.32,0.059 -4.36,0.801 -6.11,2.188 -1.78,1.297 -2.94,3.125 -3.52,5.527 -4.06,-5.07 -8.84,-7.656 -14.3,-7.715 -5.06,0.059 -9.02,1.633 -11.95,4.707 -3.23,2.91 -4.83,6.953 -4.83,12.129 0,2.469 0.49,4.758 1.46,6.902 0.92,2.082 2.43,4.043 4.55,5.86 4.18,3.722 12.15,6.621 23.97,8.683 v 3.809 c 0,3.125 -0.59,5.262 -1.73,6.328 -1.19,0.977 -2.77,1.426 -4.69,1.348 -0.69,0 -1.38,-0.078 -2.12,-0.235 -0.91,-0.214 -1.92,-0.586 -3.03,-1.113 -2.14,-1.008 -5.29,-3.203 -9.46,-6.562 l -6.36,7.461"
         style="fill:#231f20;fill-opacity:1;fill-rule:nonzero;stroke:none"
         id="path3754"
         inkscape:connector-curvature="0" /><path
         d="m 1481.41,221.699 -4.57,-2.519 c -1.75,-0.957 -3.38,-1.543 -4.86,-1.77 -1.47,-0.359 -2.64,-0.515 -3.53,-0.515 -9.9,-0.137 -14.95,5.625 -15.17,17.324 0,3.418 0.04,8.027 0.1,13.816 l 0.38,17.649 h -7.58 v 10.554 l 7.58,-0.23 0.45,20.543 h 13.43 l -0.4,-20.543 12.41,0.23 v -10.554 h -12.43 l -0.3,-16.946 c -0.07,-5.808 -0.11,-10.886 -0.11,-15.242 -0.08,-3.945 1.44,-5.969 4.53,-6.055 2.28,0.086 4.34,0.985 6.23,2.754 l 3.84,-8.496"
         style="fill:#231f20;fill-opacity:1;fill-rule:nonzero;stroke:none"
         id="path3756"
         inkscape:connector-curvature="0" /><path
         d="m 1520.53,255.398 c -0.08,3.352 -0.89,6.243 -2.44,8.75 -1.64,2.473 -4.22,3.735 -7.81,3.813 -3.14,-0.078 -5.77,-1.418 -7.93,-4.043 -2.14,-2.609 -3.38,-5.441 -3.73,-8.52 z m -22.31,-9.871 c 0.08,-1.964 0.38,-3.945 0.87,-5.91 0.45,-2.039 1.17,-3.945 2.25,-5.73 1.89,-3.77 5.17,-5.715 9.76,-5.793 2.69,0 5.13,0.793 7.33,2.402 2.16,1.426 4.08,3.117 5.71,5 l 7.76,-7.281 c -5.98,-7.317 -13.57,-11.106 -22.76,-11.32 -7.21,0.078 -13.06,2.863 -17.49,8.386 -4.53,5.41 -6.83,12.688 -6.88,21.867 0,8.028 2.25,15.086 6.78,21.219 4.36,6.184 10.6,9.328 18.73,9.504 15.46,-0.312 23.16,-11.074 23.08,-32.344 h -35.14"
         style="fill:#231f20;fill-opacity:1;fill-rule:nonzero;stroke:none"
         id="path3758"
         inkscape:connector-curvature="0" /><path
         d="m 1544.76,233.809 h 14.76 v -15.274 h -14.76 v 15.274"
         style="fill:#231f20;fill-opacity:1;fill-rule:nonzero;stroke:none"
         id="path3760"
         inkscape:connector-curvature="0" /></g></g></svg>