<?xml version="1.0" encoding="UTF-8" standalone="no"?>
<svg
   xmlns:dc="http://purl.org/dc/elements/1.1/"
   xmlns:cc="http://creativecommons.org/ns#"
   xmlns:rdf="http://www.w3.org/1999/02/22-rdf-syntax-ns#"
   xmlns:svg="http://www.w3.org/2000/svg"
   xmlns="http://www.w3.org/2000/svg"
   viewBox="0 0 300 120"
   height="120"
   width="300"
   xml:space="preserve"
   version="1.1"
   id="svg2"><metadata
     id="metadata8"><rdf:RDF><cc:Work
         rdf:about=""><dc:format>image/svg+xml</dc:format><dc:type
           rdf:resource="http://purl.org/dc/dcmitype/StillImage" /><dc:title></dc:title></cc:Work></rdf:RDF></metadata><defs
     id="defs6"><clipPath
       id="clipPath16"
       clipPathUnits="userSpaceOnUse"><path
         id="path18"
         d="m 0,335.294 1000,0 L 1000,0 0,0 0,335.294 Z" /></clipPath></defs><g
     transform="matrix(1.25,0,0,-1.25,0,120.00001)"
     id="g10"><g
       transform="matrix(0.24325555,0,0,0.24325555,-1.689647,7.0243404)"
       id="g12"><g
         clip-path="url(#clipPath16)"
         id="g14"><g
           transform="translate(167.1362,151.3525)"
           id="g20"><path
             id="path22"
             style="fill:#003d5f;fill-opacity:1;fill-rule:nonzero;stroke:none"
             d="m 0,0 c 0,-8.012 -2.113,-14.201 -6.338,-18.576 -4.221,-4.363 -10.046,-6.551 -17.47,-6.551 -7.432,0 -13.259,2.188 -17.485,6.551 -4.217,4.375 -6.329,10.564 -6.329,18.576 l 0,15.729 c 0,8.732 2.112,15.365 6.329,19.867 4.226,4.526 10.053,6.784 17.485,6.784 7.424,0 13.249,-2.258 17.47,-6.784 C -2.113,31.094 0,24.461 0,15.729 L 0,0 Z m 13.76,50.578 c -4.073,4.585 -9.245,8.191 -15.511,10.815 -6.26,2.617 -13.613,3.919 -22.057,3.919 -8.602,0 -16.025,-1.302 -22.283,-3.919 -6.269,-2.624 -11.402,-6.23 -15.406,-10.815 -4.009,-4.589 -6.993,-9.915 -8.956,-15.952 -1.963,-6.052 -2.95,-12.491 -2.95,-19.338 l 0,-15.073 c 0,-6.557 0.987,-12.74 2.95,-18.57 1.963,-5.831 4.947,-10.926 8.956,-15.288 4.004,-4.377 9.137,-7.837 15.406,-10.384 6.258,-2.536 13.681,-3.825 22.283,-3.825 8.444,0 15.797,1.289 22.057,3.825 6.266,2.547 11.438,6.007 15.511,10.384 4.079,4.362 7.105,9.457 9.067,15.288 1.974,5.83 2.949,12.013 2.949,18.57 l 0,15.073 c 0,6.847 -0.975,13.286 -2.949,19.338 -1.962,6.037 -4.988,11.363 -9.067,15.952" /></g><g
           transform="translate(286.3438,152.0107)"
           id="g24"><path
             id="path26"
             style="fill:#003d5f;fill-opacity:1;fill-rule:nonzero;stroke:none"
             d="m 0,0 c 0,-7.727 -2.079,-13.918 -6.226,-18.582 -4.146,-4.654 -9.65,-6.982 -16.491,-6.982 -7.139,0 -13.112,1.525 -17.915,4.584 -4.81,3.058 -7.211,7.867 -7.211,14.416 l 0,25.133 c 0.29,7.713 2.589,13.356 6.884,16.923 4.298,3.571 9.642,5.358 16.056,5.358 7.427,0 13.431,-2.375 18.023,-7.104 C -2.292,29.01 0,22.129 0,13.099 L 0,0 Z M 14.422,50.128 C 10.636,54.711 5.818,58.291 0,60.833 c -5.832,2.554 -12.74,3.821 -20.755,3.821 -16.97,0 -24.147,-8.183 -27.088,-11.854 l 0,38.732 c 0,2.617 -1.13,4.985 -3.39,7.097 -2.253,2.112 -5.276,3.171 -9.06,3.171 -3.935,0 -7.103,-1.059 -9.51,-3.171 -2.403,-2.112 -3.601,-4.48 -3.601,-7.097 l 0,-97.218 c 0,-6.265 1.05,-12.052 3.168,-17.357 2.117,-5.332 5.278,-9.943 9.503,-13.875 4.224,-3.934 9.5,-6.994 15.837,-9.182 6.34,-2.187 13.728,-3.281 22.179,-3.281 8.152,0 15.25,1.356 21.297,4.037 6.04,2.705 11.107,6.35 15.187,10.926 4.079,4.59 7.09,9.908 9.06,15.951 1.974,6.045 2.95,12.485 2.95,19.34 l 0,12.669 c 0,7.422 -0.948,14.229 -2.841,20.426 -1.895,6.191 -4.731,11.577 -8.514,16.16" /></g><g
           transform="translate(534.0879,202.8022)"
           id="g28"><path
             id="path30"
             style="fill:#003d5f;fill-opacity:1;fill-rule:nonzero;stroke:none"
             d="m 0,0 c -3.213,4.287 -7.574,7.645 -13.112,10.041 -5.539,2.409 -12.533,3.613 -20.986,3.613 -8.733,0 -15.794,-1.565 -21.18,-4.7 -5.393,-3.137 -9.765,-7.25 -13.112,-12.347 -3.206,5.097 -7.536,9.21 -12.996,12.347 -5.459,3.135 -12.416,4.7 -20.851,4.7 -8.464,0 -15.457,-1.204 -20.98,-3.613 -5.546,-2.396 -9.948,-5.754 -13.231,-10.041 -3.268,-4.306 -5.562,-9.402 -6.868,-15.3 -1.312,-5.893 -1.966,-12.271 -1.966,-19.11 l 0,-55.059 c 0,-2.617 1.194,-4.987 3.596,-7.09 2.404,-2.119 5.574,-3.17 9.505,-3.17 3.784,0 6.801,1.051 9.073,3.17 2.254,2.103 3.385,4.473 3.385,7.09 l 0,55.939 c 0,8.004 1.454,13.894 4.368,17.682 2.908,3.789 8.005,5.685 15.288,5.685 12.667,0 19.012,-7.795 19.012,-23.367 l 0,-57.461 0.217,-0.437 c 0.581,-2.332 1.962,-4.299 4.152,-5.906 2.185,-1.592 4.956,-2.395 8.296,-2.395 l 1.107,0 c 2.324,0.152 4.359,0.691 6.104,1.635 1.759,0.953 3.127,2.144 4.155,3.613 l 0.54,0.76 0.33,0.762 0.449,0.652 0.427,1.967 0,56.81 c 0,15.572 6.342,23.367 19.015,23.367 7.13,0 12.195,-1.896 15.188,-5.685 2.975,-3.788 4.458,-9.678 4.458,-17.682 l 0,-55.939 c 0,-2.617 1.136,-4.987 3.391,-7.09 2.259,-2.119 5.208,-3.17 8.85,-3.17 4.071,0 7.284,1.051 9.61,3.17 2.327,2.103 3.503,4.473 3.503,7.09 l 0,55.059 c 0,6.839 -0.664,13.217 -1.967,19.11 C 5.456,-9.402 3.198,-4.306 0,0" /></g><g
           transform="translate(594.0059,189.2544)"
           id="g32"><path
             id="path34"
             style="fill:#003d5f;fill-opacity:1;fill-rule:nonzero;stroke:none"
             d="m 0,0 c 3.85,4.146 9.057,6.224 15.621,6.224 6.548,0 11.908,-1.745 16.049,-5.241 4.154,-3.498 6.23,-8.233 6.23,-14.202 l 0,-3.282 -44.576,0 C -6.078,-9.653 -3.863,-4.149 0,0 m 45.103,-37.251 c 6.12,0 10.494,1.371 13.113,4.146 2.617,2.77 3.945,7.574 3.945,14.43 0,5.095 -0.885,12.006 -2.629,17.254 C 57.787,3.813 55.044,8.591 51.333,12.885 47.622,17.183 42.846,20.68 37.029,23.374 31.2,26.067 24.136,27.41 15.828,27.41 8.85,27.41 2.437,26.178 -3.392,23.698 -9.207,21.22 -14.236,17.869 -18.458,13.652 c -4.232,-4.23 -7.541,-9.173 -9.943,-14.85 -2.41,-5.686 -3.616,-11.73 -3.616,-18.149 l 0,-23.145 c 0,-5.976 1.24,-11.619 3.727,-16.922 2.477,-5.334 5.928,-9.943 10.371,-13.875 4.445,-3.933 9.722,-7.078 15.841,-9.404 6.108,-2.326 12.88,-3.488 20.314,-3.488 16.482,0 26.645,4.443 36.034,9.596 l 0.248,0.166 c 3.401,1.828 5.734,5.378 5.734,9.519 0,6.004 -4.86,10.879 -10.863,10.879 -2.515,0 -4.785,-0.887 -6.62,-2.307 l -0.286,-0.115 c -1.895,-1.014 -3.863,-2.037 -5.897,-3.049 -1.881,-0.871 -4.474,-1.57 -7.755,-2.078 -3.28,-0.512 -6.882,-0.76 -10.814,-0.76 -7.868,0 -13.946,2.104 -18.239,6.329 -4.293,4.222 -6.454,9.832 -6.454,16.823 l 0,3.927 51.779,0 z" /></g><g
           transform="translate(901.832,106.3955)"
           id="g36"><path
             id="path38"
             style="fill:#003d5f;fill-opacity:1;fill-rule:nonzero;stroke:none"
             d="m 0,0 c -1.454,-1.744 -3.385,-3.17 -5.782,-4.25 -2.408,-1.094 -5.173,-1.871 -8.295,-2.299 -3.142,-0.443 -6.452,-0.666 -9.956,-0.666 -11.355,0 -19.655,2.965 -24.896,8.842 -5.25,5.914 -7.868,16.07 -7.868,30.486 l 0,51.998 -8.737,0 c -2.491,0 -4.653,0.909 -6.557,2.735 -1.902,1.813 -2.831,4.328 -2.831,7.532 0,2.909 0.929,5.283 2.831,7.104 1.904,1.815 4.066,2.729 6.557,2.729 l 8.737,0 0,22.495 c 0,2.624 1.151,4.992 3.49,7.104 2.34,2.105 5.539,3.165 9.619,3.165 3.781,0 6.798,-1.06 9.063,-3.165 2.255,-2.112 3.392,-4.48 3.392,-7.104 l 0,-22.495 16.16,0 c 2.478,0 4.667,-0.914 6.554,-2.729 1.88,-1.821 2.833,-4.195 2.833,-7.104 0,-3.204 -0.953,-5.719 -2.833,-7.532 -1.887,-1.826 -4.076,-2.735 -6.554,-2.735 l -16.16,0 0,-52.871 c 0,-6.107 0.797,-10.26 2.41,-12.449 1.577,-2.187 3.918,-3.273 6.987,-3.273 2.904,0 5.38,0.242 7.421,0.753 2.035,0.512 4.368,0.776 6.993,0.776 3.353,0 5.796,-0.914 7.318,-2.742 C 1.425,12.49 2.194,9.973 2.194,6.771 2.194,4.004 1.453,1.744 0,0 m -96.774,130.12 c 0,-2.597 -1.135,-4.951 -3.387,-7.042 -2.248,-2.09 -5.275,-3.144 -9.069,-3.144 -3.933,0 -7.098,1.054 -9.5,3.144 -2.408,2.091 -3.607,4.445 -3.607,7.042 l 0,5.199 c 0,2.597 1.199,4.945 3.607,7.036 2.402,2.09 5.567,3.135 9.5,3.135 3.794,0 6.821,-1.045 9.069,-3.135 2.252,-2.091 3.387,-4.439 3.387,-7.036 l 0,-5.199 z m 0,-127.059 c 0,-2.612 -1.135,-4.985 -3.387,-7.106 -2.248,-2.103 -5.275,-3.17 -9.069,-3.17 -3.933,0 -7.098,1.067 -9.5,3.17 -2.408,2.121 -3.607,4.494 -3.607,7.106 l 0,93.069 c 0,2.618 1.199,4.985 3.607,7.091 2.402,2.112 5.567,3.17 9.5,3.17 3.794,0 6.821,-1.058 9.069,-3.17 2.252,-2.106 3.387,-4.473 3.387,-7.091 l 0,-93.069 z m 30.887,206.149 c -81.271,0 -147.16,-65.88 -147.16,-147.159 0,-81.272 65.889,-147.158 147.16,-147.158 81.272,0 147.158,65.886 147.158,147.158 0,81.279 -65.886,147.159 -147.158,147.159" /></g><g
           transform="translate(71.9927,215.8906)"
           id="g40"><path
             id="path42"
             style="fill:#003d5f;fill-opacity:1;fill-rule:nonzero;stroke:none"
             d="m 0,0 c -0.894,0.178 -1.752,0.372 -2.721,0.483 l -0.243,0.026 c -1.602,0.176 -3.288,0.265 -5.091,0.265 -16.172,0 -27.969,-3.746 -35.392,-11.243 -7.423,-7.507 -11.14,-18.169 -11.14,-32.003 l 0,-60.086 c 0,-2.617 1.201,-4.986 3.603,-7.089 2.403,-2.12 5.574,-3.17 9.501,-3.17 3.794,0 6.805,1.05 9.069,3.17 2.261,2.103 3.386,4.472 3.386,7.089 l 0,60.957 c 0,3.927 0.471,7.133 1.42,9.611 0.948,2.478 2.333,4.376 4.147,5.678 1.82,1.317 4.05,2.187 6.664,2.617 2.624,0.444 5.539,0.665 8.742,0.665 1.716,0 3.516,-0.125 5.324,-0.264 6.276,0.374 11.268,5.525 11.268,11.897 C 8.537,-5.998 4.926,-1.482 0,0" /></g><g
           transform="translate(372.2261,265.4424)"
           id="g44"><path
             id="path46"
             style="fill:#003d5f;fill-opacity:1;fill-rule:nonzero;stroke:none"
             d="m 0,0 c -2.015,0 -3.878,-0.561 -5.527,-1.46 l -0.039,0.026 -20.347,-11.152 c -0.724,-0.285 -1.404,-0.665 -2.028,-1.116 l -0.066,-0.035 0.007,-0.007 c -2.417,-1.765 -3.999,-4.584 -3.999,-7.796 0,-5.33 4.321,-9.651 9.653,-9.651 1.679,0 3.233,0.47 4.608,1.212 l 21.339,7.331 1.087,0.375 0.041,0.021 0,0.006 c 4.072,1.814 6.907,5.864 6.907,10.608 C 11.636,-5.207 6.433,0 0,0" /></g><g
           transform="translate(353.6216,217.98)"
           id="g48"><path
             id="path50"
             style="fill:#003d5f;fill-opacity:1;fill-rule:nonzero;stroke:none"
             d="M 0,0 C -0.73,0.124 -1.42,0.317 -2.219,0.346 L -2.957,0.415 C -4.368,0.409 -5.58,0.124 -6.792,-0.144 c -5.274,-1.588 -9.146,-6.419 -9.146,-12.201 l 0,-92.079 c 0,-2.618 1.205,-4.985 3.61,-7.098 2.396,-2.111 5.564,-3.164 9.508,-3.164 3.78,0 6.798,1.053 9.058,3.164 2.257,2.113 3.383,4.48 3.383,7.098 l 0,92.079 C 9.621,-6.384 5.523,-1.411 0,0" /></g><g
           transform="translate(629.2334,165.6792)"
           id="g52"><path
             id="path54"
             style="fill:#003d5f;fill-opacity:1;fill-rule:nonzero;stroke:none"
             d="m 0,0 c 0,-7.465 6.052,-13.532 13.531,-13.532 7.484,0 13.529,6.067 13.529,13.532 0,7.476 -6.045,13.541 -13.529,13.541 C 8.855,13.541 9.791,7.144 7.362,3.537 5.899,1.376 0,2.802 0,0" /></g></g></g></g></svg>